<svg width="74" height="25" viewBox="0 0 74 25" fill="none" xmlns="http://www.w3.org/2000/svg">
<g clip-path="url(#clip0_111_1129)">
<path fill-rule="evenodd" clip-rule="evenodd" d="M12.7073 1.59126C12.903 1.83422 13.0028 2.162 13.2024 2.81762L17.5623 17.1401C15.9246 16.2902 14.1669 15.6951 12.3498 15.3753L9.51101 5.7823C9.48838 5.70576 9.44159 5.63861 9.37762 5.59089C9.31365 5.54318 9.23595 5.51745 9.15614 5.51758C9.07633 5.5177 8.99871 5.54366 8.93489 5.59158C8.87107 5.6395 8.82448 5.70679 8.8021 5.7834L5.99772 15.3705C4.17237 15.6888 2.40656 16.2848 0.761719 17.1379L5.14306 2.8143C5.34325 2.1598 5.44336 1.83255 5.63903 1.59008C5.81181 1.37602 6.03652 1.20976 6.29176 1.10715C6.58089 0.990967 6.92309 0.990967 7.60752 0.990967H10.7369C11.4222 0.990967 11.7649 0.990967 12.0543 1.10742C12.3097 1.21022 12.5346 1.37681 12.7073 1.59126Z" fill="white"/>
<path fill-rule="evenodd" clip-rule="evenodd" d="M13.2297 17.8218C12.511 18.4364 11.0764 18.8556 9.42389 18.8556C7.39573 18.8556 5.69578 18.2242 5.2447 17.375C5.08344 17.8617 5.04727 18.4187 5.04727 18.7745C5.04727 18.7745 4.94105 20.5217 6.15624 21.7369C6.15624 21.1059 6.66776 20.5944 7.29874 20.5944C8.38027 20.5944 8.37906 21.5379 8.37807 22.3035L8.37801 22.3718C8.37801 23.5337 9.08816 24.5298 10.0981 24.9496C9.94727 24.6393 9.86266 24.2909 9.86266 23.9228C9.86266 22.8146 10.5132 22.402 11.2694 21.9224C11.871 21.5408 12.5394 21.1169 13.0001 20.2665C13.2405 19.8228 13.377 19.3146 13.377 18.7745C13.377 18.4424 13.3253 18.1223 13.2297 17.8218V17.8218Z" fill="#FF5D01"/>
<path d="M27.5732 16.9162C29.397 16.9162 30.7647 16.2674 31.3258 15.1627C31.3258 15.6888 31.3607 16.2324 31.4485 16.6532H34.4469C34.3068 16.0394 34.2364 15.1977 34.2364 14.0931V11.3927C34.2364 8.83254 32.7285 7.62264 29.3792 7.62264C26.451 7.62264 24.4871 8.83254 24.2591 10.814H27.3804C27.4856 9.9548 28.2045 9.48135 29.3792 9.48135C30.5366 9.48135 31.1854 9.9548 31.1854 10.9368V11.1998L28.0117 11.4803C26.4685 11.6382 25.5918 11.9012 24.9781 12.322C24.3293 12.7604 23.9961 13.4267 23.9961 14.2509C23.9961 15.8991 25.3639 16.9162 27.5732 16.9162ZM28.7306 15.0925C27.7135 15.0925 27.0998 14.6893 27.0998 14.0405C27.0998 13.3742 27.6082 13.0234 28.8885 12.8656L31.238 12.6201V13.1462C31.238 14.321 30.2211 15.0925 28.7306 15.0925V15.0925ZM40.7712 16.9162C43.8222 16.9162 45.383 15.7764 45.383 13.9353C45.383 12.4097 44.5062 11.568 42.3846 11.2874L39.7366 10.9894C38.9827 10.8841 38.667 10.6912 38.667 10.2704C38.667 9.76191 39.1755 9.53394 40.3328 9.53394C41.9285 9.53394 43.0332 9.90218 43.9277 10.6211L45.3478 9.20078C44.3658 8.18376 42.6651 7.62264 40.5607 7.62264C37.5975 7.62264 35.9492 8.67472 35.9492 10.4458C35.9492 11.9888 36.9661 12.8481 39.0702 13.1286L41.4552 13.4092C42.4021 13.5319 42.6826 13.7073 42.6826 14.1632C42.6826 14.6893 42.1564 14.9698 40.929 14.9698C39.1054 14.9698 37.878 14.4788 37.0539 13.567L35.4404 14.8997C36.5102 16.2324 38.3339 16.9162 40.7712 16.9162V16.9162ZM47.8587 9.86712V13.567C47.8587 15.7413 49.0861 16.8461 51.7164 16.8461C52.5231 16.8461 53.1543 16.7584 53.7505 16.583V14.3034C53.4348 14.3736 53.049 14.4437 52.5406 14.4437C51.4359 14.4437 50.8923 13.9528 50.8923 12.9182V9.86712H53.768V7.88564H50.8923V4.67676L47.8587 5.79899V7.88564H45.8947V9.86712H47.8587V9.86712ZM58.1231 7.88564H55.3527V16.6532H58.3862V13.3742C58.3862 12.4272 58.5967 11.568 59.1755 11.0244C59.6313 10.6036 60.2802 10.3757 61.1919 10.3757C61.525 10.3757 61.7881 10.4107 62.0861 10.4458V7.69276C61.8933 7.6577 61.7529 7.6577 61.5076 7.6577C59.7715 7.6577 58.5967 8.65719 58.1231 10.288V7.88564V7.88564ZM68.0807 16.9162C71.2898 16.9162 73.5519 15.2153 73.5519 12.2519C73.5519 9.30599 71.2898 7.62264 68.0807 7.62264C64.8544 7.62264 62.5924 9.30599 62.5924 12.2519C62.5924 15.2153 64.8544 16.9162 68.0807 16.9162ZM68.0807 14.8997C66.608 14.8997 65.6786 13.9528 65.6786 12.2519C65.6786 10.551 66.608 9.63915 68.0807 9.63915C69.5363 9.63915 70.4657 10.551 70.4657 12.2519C70.4657 13.9528 69.5363 14.8997 68.0807 14.8997Z" fill="white"/>
</g>
<defs>
<clipPath id="clip0_111_1129">
<rect width="72.8054" height="24" fill="white" transform="translate(0.749023 0.974365)"/>
</clipPath>
</defs>
</svg>
