<svg width="117" height="25" viewBox="0 0 117 25" fill="none" xmlns="http://www.w3.org/2000/svg">
<g clip-path="url(#clip0_111_1090)">
<path d="M7.15692 17.7734C6.54253 17.1534 6.0565 16.4183 5.72665 15.6101C5.39681 14.802 5.22964 13.9367 5.23471 13.0639C5.23248 12.191 5.40428 11.3265 5.74007 10.5209C6.07586 9.71524 6.5689 8.98462 7.19036 8.37175C7.45657 8.13513 7.67169 7.84666 7.82253 7.52401C7.97338 7.20136 8.05678 6.85131 8.06763 6.49531C8.07848 6.1393 8.01655 5.78483 7.88564 5.45359C7.75472 5.12235 7.55758 4.82131 7.30627 4.56892C7.05497 4.31652 6.75479 4.11808 6.42412 3.98573C6.09345 3.85338 5.73925 3.78992 5.3832 3.79923C5.02715 3.80854 4.67675 3.89043 4.35344 4.03988C4.03014 4.18932 3.74075 4.40319 3.50297 4.66837C1.26962 6.88855 0.00959823 9.90493 5.46087e-05 13.0541C-0.00948902 16.2032 1.23223 19.2271 3.45208 21.4608C3.68908 21.7256 3.97753 21.9394 4.29983 22.0891C4.62214 22.2388 4.97157 22.3213 5.3268 22.3316C5.68203 22.3418 6.03563 22.2796 6.36604 22.1488C6.69645 22.0179 6.99675 21.8212 7.24864 21.5705C7.50052 21.3198 7.69871 21.0204 7.83112 20.6906C7.96354 20.3608 8.0274 20.0075 8.01882 19.6522C8.01023 19.297 7.92939 18.9471 7.78121 18.6241C7.63303 18.3011 7.42061 18.0117 7.15692 17.7734V17.7734Z" fill="#FFDA00"/>
<path d="M7.19023 8.37165C8.44268 7.13178 10.1356 6.43905 11.898 6.44532C13.6603 6.45159 15.3483 7.15634 16.5919 8.4051C16.8281 8.6727 17.1165 8.88918 17.4394 9.04122C17.7623 9.19326 18.1129 9.27764 18.4696 9.28919C18.8263 9.30073 19.1817 9.23919 19.5137 9.10835C19.8458 8.97751 20.1476 8.78013 20.4006 8.52835C20.6535 8.27657 20.8523 7.97571 20.9847 7.64427C21.1171 7.31283 21.1804 6.9578 21.1705 6.60103C21.1606 6.24425 21.0779 5.89326 20.9274 5.56963C20.7769 5.24601 20.5618 4.95659 20.2953 4.71916C19.2002 3.60993 17.8967 2.72797 16.4598 2.12393C15.0228 1.51989 13.4807 1.20567 11.922 1.19932C10.3633 1.19297 8.81864 1.49461 7.37682 2.08692C5.93501 2.67924 4.62441 3.55055 3.52029 4.65083C3.25312 4.88623 3.03679 5.17369 2.88456 5.49559C2.73232 5.81749 2.64737 6.16708 2.6349 6.52295C2.62244 6.87882 2.68273 7.23349 2.81208 7.56525C2.94143 7.89702 3.13712 8.19889 3.38717 8.45242C3.63722 8.70594 3.93638 8.90576 4.26633 9.03967C4.59628 9.17357 4.95009 9.23874 5.3061 9.23118C5.6621 9.22362 6.01283 9.14349 6.3368 8.9957C6.66076 8.84791 6.95117 8.63556 7.19023 8.37165V8.37165Z" fill="#67B3FF"/>
<path d="M16.5771 17.8069C15.9573 18.4226 15.2222 18.9099 14.4138 19.241C13.6054 19.572 12.7397 19.7404 11.8661 19.7364C10.9928 19.7377 10.128 19.5648 9.32228 19.2277C8.51661 18.8907 7.78626 18.3963 7.174 17.7735C6.93738 17.5073 6.64891 17.2922 6.32626 17.1413C6.00361 16.9905 5.65356 16.9071 5.29755 16.8962C4.94155 16.8854 4.58707 16.9473 4.25583 17.0782C3.92459 17.2091 3.62356 17.4063 3.37116 17.6576C3.11877 17.9089 2.92032 18.2091 2.78798 18.5397C2.65563 18.8704 2.59217 19.2246 2.60148 19.5807C2.61079 19.9367 2.69268 20.2871 2.84212 20.6104C2.99157 20.9337 3.20543 21.2231 3.47062 21.4609C4.56761 22.57 5.87272 23.4518 7.31112 24.0556C8.74953 24.6594 10.293 24.9735 11.853 24.9797C13.4129 24.9859 14.9588 24.6842 16.402 24.0918C17.8452 23.4995 19.1573 22.6282 20.2631 21.5278C20.5074 21.2858 20.7016 20.998 20.8347 20.6809C20.9678 20.3638 21.0372 20.0236 21.0388 19.6797C21.0404 19.3358 20.9743 18.995 20.8442 18.6766C20.7141 18.3583 20.5225 18.0687 20.2805 17.8244C20.0385 17.5801 19.7507 17.3858 19.4336 17.2527C19.1165 17.1196 18.7763 17.0503 18.4324 17.0487C18.0885 17.0471 17.7477 17.1132 17.4294 17.2433C17.111 17.3734 16.8214 17.5649 16.5771 17.8069V17.8069Z" fill="#EB5A68"/>
<path d="M7.18995 8.37181C6.82311 8.73821 6.35572 8.98741 5.84705 9.08778C5.33839 9.18815 4.81137 9.13518 4.33285 8.93559C3.85433 8.736 3.44588 8.39878 3.1593 7.96671C2.87271 7.53464 2.72092 7.02718 2.72317 6.50871C2.72542 5.99024 2.88161 5.48412 3.17193 5.05455C3.46225 4.62498 3.87361 4.29132 4.35384 4.09588C4.83408 3.90045 5.36153 3.85206 5.86931 3.95684C6.37709 4.06162 6.8423 4.31486 7.20594 4.68443C7.6904 5.17678 7.96058 5.84069 7.95758 6.53142C7.95458 7.22214 7.67866 7.88368 7.18995 8.37181Z" fill="#47A1FF"/>
<path d="M7.1399 21.4607C6.77292 21.8269 6.30543 22.0759 5.79672 22.1761C5.28802 22.2763 4.76102 22.2231 4.28258 22.0233C3.80414 21.8236 3.39582 21.4862 3.10941 21.054C2.823 20.6218 2.6714 20.1143 2.67386 19.5958C2.67631 19.0773 2.8327 18.5713 3.12319 18.1418C3.41368 17.7124 3.82517 17.3789 4.30548 17.1836C4.78579 16.9884 5.31327 16.9402 5.821 17.0452C6.32873 17.1502 6.79385 17.4036 7.15734 17.7733C7.64161 18.2658 7.91153 18.9299 7.90826 19.6206C7.90499 20.3113 7.6288 20.9727 7.1399 21.4607V21.4607Z" fill="#D5465F"/>
<path fill-rule="evenodd" clip-rule="evenodd" d="M31.9421 15.6287C32.6967 15.0587 32.7971 15.3772 33.4339 16.014C33.7524 16.3325 34.6233 16.8864 34.0533 17.3546C32.864 18.3259 31.7909 18.7621 30.2729 18.7621C26.8371 18.7461 24.4074 16.1812 24.6022 12.7788C24.6851 11.255 25.2885 9.81265 26.4794 8.82392C27.5684 7.90207 28.925 7.50076 30.35 7.5342C31.0484 7.53213 31.7402 7.66853 32.3856 7.93551C32.8227 8.09334 33.2346 8.31374 33.6084 8.58982C34.3631 9.17143 34.0112 9.51166 33.4238 10.0976C33.29 10.2314 33.1562 10.3666 33.0384 10.5004C32.7375 10.8014 32.5354 11.0195 32.134 10.7345C31.3634 10.198 30.3892 9.91297 29.4688 10.1529C26.5026 10.9061 26.6364 16.1856 30.2744 16.2031C30.8774 16.1951 31.462 15.9938 31.9421 15.6287V15.6287ZM114.395 18.8276C114.276 18.8281 114.158 18.8051 114.048 18.7599C113.938 18.7147 113.838 18.6481 113.754 18.564C113.67 18.48 113.603 18.38 113.557 18.27C113.512 18.16 113.489 18.0422 113.489 17.9232L113.54 6.22559C113.539 6.10659 113.562 5.98866 113.608 5.87859C113.653 5.76852 113.72 5.66849 113.804 5.58428C113.888 5.50007 113.988 5.43334 114.098 5.38793C114.208 5.34253 114.325 5.31935 114.444 5.31973H115.417C115.536 5.31935 115.654 5.34257 115.764 5.38807C115.875 5.43356 115.975 5.50043 116.059 5.58479C116.143 5.66916 116.209 5.76936 116.254 5.8796C116.3 5.98983 116.322 6.10792 116.322 6.22704L116.271 17.9246C116.271 18.0435 116.248 18.1614 116.203 18.2714C116.158 18.3814 116.091 18.4813 116.007 18.5654C115.923 18.6495 115.823 18.7161 115.713 18.7613C115.603 18.8066 115.485 18.8296 115.366 18.829L114.395 18.8276ZM109.306 17.471C108.25 18.4597 107.244 18.9788 105.752 18.9788C102.737 18.9613 101.294 16.4648 101.294 13.6658L101.312 8.90679C101.311 8.78786 101.335 8.67004 101.38 8.56012C101.425 8.45021 101.492 8.35038 101.576 8.26642C101.661 8.18246 101.761 8.11603 101.871 8.07096C101.981 8.02589 102.099 8.00308 102.218 8.00385H103.19C103.309 8.00327 103.427 8.02627 103.537 8.07152C103.647 8.11676 103.747 8.18336 103.831 8.26745C103.915 8.35155 103.982 8.45148 104.027 8.56147C104.072 8.67145 104.095 8.78932 104.095 8.90825L104.079 13.6672C104.079 15.226 104.916 16.4488 106.559 16.4488C108.202 16.4488 109.207 15.0747 109.223 13.5407V11.841C109.21 11.775 109.204 11.7076 109.207 11.6403L109.223 8.94169C109.223 8.82276 109.246 8.7049 109.291 8.59491C109.336 8.48492 109.403 8.38499 109.487 8.3009C109.571 8.2168 109.671 8.1502 109.781 8.10496C109.891 8.05971 110.009 8.03671 110.127 8.03729H111.087C111.206 8.03671 111.324 8.05971 111.434 8.10496C111.544 8.1502 111.644 8.2168 111.728 8.3009C111.812 8.38499 111.879 8.48492 111.924 8.59491C111.969 8.7049 111.992 8.82276 111.992 8.94169L111.96 17.9246C111.957 18.1623 111.861 18.3893 111.691 18.5559C111.522 18.7225 111.293 18.8149 111.055 18.813H110.234C110 18.8057 109.779 18.7098 109.614 18.5447C109.448 18.3797 109.353 18.1579 109.345 17.9246L109.306 17.471ZM97.7364 8.03729H99.6135C99.7325 8.03899 99.85 8.06424 99.9592 8.11158C100.068 8.15892 100.167 8.22742 100.25 8.31312C100.332 8.39883 100.397 8.50004 100.44 8.61092C100.484 8.72179 100.505 8.84014 100.502 8.95914V9.57855C100.5 9.81732 100.405 10.0458 100.236 10.2149C100.067 10.3841 99.8392 10.4803 99.6004 10.4829H97.7189L97.6855 17.8737C97.686 17.9927 97.6631 18.1106 97.6178 18.2207C97.5726 18.3308 97.506 18.4308 97.4219 18.515C97.3379 18.5992 97.238 18.666 97.128 18.7114C97.018 18.7568 96.9001 18.78 96.7811 18.7796H95.8098C95.6907 18.78 95.5728 18.7568 95.4627 18.7114C95.3526 18.666 95.2526 18.5993 95.1684 18.5151C95.0842 18.4309 95.0175 18.3309 94.9721 18.2208C94.9267 18.1107 94.9036 17.9928 94.9039 17.8737L94.9374 7.65198C94.9374 5.42297 96.2111 3.66216 98.491 3.4615C98.5579 3.4615 98.6073 3.44551 98.6742 3.44551C98.8083 3.43678 98.9429 3.43678 99.077 3.44551H99.9494C100.068 3.44721 100.186 3.47241 100.295 3.51966C100.404 3.56691 100.503 3.63528 100.585 3.72083C100.668 3.80637 100.733 3.90741 100.776 4.01812C100.819 4.12883 100.84 4.24703 100.838 4.3659V4.93587C100.836 5.1754 100.741 5.40471 100.571 5.57422C100.402 5.74373 100.173 5.83982 99.9334 5.84173H99.2296C98.1566 5.84173 97.7044 6.66179 97.6869 7.66797L97.7364 8.03729ZM90.9999 8.00385H93.0573C93.295 8.00615 93.5221 8.10269 93.6886 8.27225C93.8552 8.44182 93.9477 8.67056 93.9457 8.90825V9.52766C93.9434 9.76534 93.8469 9.9924 93.6773 10.159C93.5078 10.3255 93.279 10.418 93.0413 10.4161H90.9824L90.9665 14.9381C90.9665 15.8105 91.3852 16.3121 92.2562 16.3121H92.6749C92.9127 16.3148 93.1398 16.4116 93.3063 16.5814C93.4728 16.7512 93.5653 16.9801 93.5633 17.218V17.8461C93.5606 18.0837 93.464 18.3105 93.2945 18.477C93.125 18.6435 92.8965 18.736 92.6589 18.7345H91.8709C91.7252 18.7374 91.5796 18.7316 91.4347 18.717C89.2056 18.5716 88.2169 17.1264 88.2169 14.9468C88.2344 12.014 88.2344 9.09872 88.2504 6.16597C88.2515 6.04816 88.2758 5.93172 88.322 5.82331C88.3681 5.71491 88.4352 5.61665 88.5193 5.53415C88.6034 5.45165 88.7029 5.38653 88.8122 5.34251C88.9215 5.29848 89.0384 5.27642 89.1562 5.27757H90.1115C90.3492 5.27987 90.5762 5.37641 90.7428 5.54597C90.9094 5.71554 91.0018 5.94428 90.9999 6.18197V8.00385ZM61.1926 7.88607H63.25C63.4877 7.88838 63.7147 7.98491 63.8813 8.15448C64.0479 8.32405 64.1403 8.55279 64.1384 8.79047V9.41279C64.1357 9.65035 64.0391 9.87718 63.8696 10.0437C63.7001 10.2102 63.4716 10.3027 63.234 10.3012H61.1693V14.8246C61.1693 15.6971 61.5881 16.1987 62.459 16.1987H62.8792C62.9968 16.1998 63.1131 16.2241 63.2213 16.2702C63.3296 16.3163 63.4277 16.3832 63.51 16.4672C63.5924 16.5512 63.6574 16.6505 63.7013 16.7597C63.7453 16.8688 63.7673 16.9855 63.7662 17.1031V17.7225C63.7639 17.9602 63.6673 18.1872 63.4978 18.3538C63.3282 18.5204 63.0995 18.6128 62.8618 18.6109H62.2424C59.8112 18.5949 58.4038 17.5553 58.4038 14.8305C58.4212 11.8977 58.4212 8.98095 58.4372 6.0482C58.4399 5.81038 58.5367 5.58333 58.7065 5.4168C58.8763 5.25027 59.1052 5.15785 59.3431 5.15979H60.2983C60.536 5.16248 60.7629 5.25938 60.9292 5.42922C61.0955 5.59906 61.1876 5.82796 61.1853 6.06565L61.1926 7.88607ZM49.0937 9.15979C50.0824 8.23795 51.1555 7.65198 52.5455 7.65198C55.5626 7.66797 57.1213 10.1238 57.1039 12.9635L57.0879 17.7225C57.0883 17.8416 57.0651 17.9595 57.0197 18.0696C56.9743 18.1797 56.9076 18.2797 56.8234 18.3639C56.7392 18.4481 56.6392 18.5148 56.5291 18.5602C56.4191 18.6056 56.3011 18.6287 56.182 18.6284H55.2107C55.0917 18.6287 54.9737 18.6056 54.8636 18.5602C54.7536 18.5148 54.6535 18.4481 54.5694 18.3639C54.4852 18.2797 54.4184 18.1797 54.3731 18.0696C54.3277 17.9595 54.3045 17.8416 54.3049 17.7225L54.3223 12.9969C54.3223 11.4382 53.4848 10.2154 51.8418 10.2154C50.1987 10.2154 49.194 11.5735 49.178 13.1147L49.1606 17.7225C49.1583 17.9602 49.0617 18.1872 48.8922 18.3538C48.7226 18.5204 48.4939 18.6128 48.2562 18.6109H47.3009C47.0632 18.6086 46.8362 18.5121 46.6696 18.3425C46.503 18.1729 46.4106 17.9442 46.4125 17.7065C46.4285 14.8406 46.4285 11.9588 46.4459 9.09291V8.70759C46.4467 8.47016 46.5416 8.24272 46.7097 8.07511C46.8779 7.90749 47.1056 7.81337 47.3431 7.81337H48.1646C48.398 7.82031 48.62 7.91614 48.7851 8.08127C48.9502 8.2464 49.046 8.46836 49.053 8.70178L49.0937 9.15979ZM78.9577 9.27611C79.9465 8.35572 81.0181 7.7683 82.4096 7.7683C85.4267 7.78575 86.9839 10.2489 86.9679 13.0813L86.9505 17.8461C86.951 17.9651 86.9281 18.083 86.8828 18.1931C86.8376 18.3032 86.771 18.4032 86.687 18.4874C86.6029 18.5716 86.5029 18.6383 86.393 18.6837C86.283 18.7291 86.1651 18.7523 86.0461 18.7519H85.0748C84.9557 18.7523 84.8378 18.7292 84.7277 18.6838C84.6176 18.6384 84.5176 18.5717 84.4334 18.4875C84.3492 18.4033 84.2825 18.3033 84.2371 18.1932C84.1917 18.0831 84.1685 17.9652 84.1689 17.8461L84.1864 13.1205C84.1864 11.5618 83.3474 10.339 81.7058 10.339C80.0642 10.339 79.0581 11.6956 79.0406 13.2383L79.0174 17.8461C79.0147 18.0839 78.9178 18.311 78.748 18.4775C78.5782 18.644 78.3493 18.7364 78.1115 18.7345H77.1562C76.9188 18.7318 76.6921 18.6351 76.5258 18.4656C76.3596 18.2961 76.2673 18.0675 76.2693 17.8301L76.3027 8.82973C76.3031 8.71143 76.3269 8.59436 76.3727 8.48528C76.4185 8.3762 76.4854 8.27726 76.5696 8.19415C76.6538 8.11103 76.7536 8.04539 76.8632 8.00101C76.9729 7.95662 77.0903 7.93436 77.2086 7.93551H78.0301C78.2644 7.94325 78.4868 8.04036 78.6517 8.20692C78.8167 8.37348 78.9116 8.59685 78.917 8.83119L78.9577 9.27611ZM39.9697 7.56764C36.7011 7.5502 34.3892 9.91297 34.3718 13.1642C34.3558 16.4488 36.6342 18.7796 39.9363 18.7956C43.2384 18.8116 45.5503 16.4997 45.5663 13.1932C45.5837 9.96386 43.2209 7.58364 39.9697 7.56764ZM67.1017 14.2881C67.3358 15.7959 68.7782 16.4153 70.1857 16.4328C70.8912 16.4266 71.5877 16.2726 72.23 15.9806C72.3333 15.9385 72.4338 15.8899 72.531 15.8352C72.8669 15.6505 73.1678 15.5342 73.4703 15.8352C73.6375 16.0024 73.7887 16.1711 73.9559 16.3208C74.1139 16.4715 74.2597 16.6344 74.3921 16.8079C74.8443 17.3764 74.5259 17.5117 74.0068 17.8635C72.9003 18.6007 71.4594 18.9686 70.1348 18.9686C66.5826 18.9526 64.2358 16.7876 64.2358 13.2049C64.2533 9.81846 66.5986 7.57346 69.9835 7.58945C73.4368 7.6069 75.3969 9.63526 75.4477 13.0871C75.4637 14.0249 75.4972 14.3274 74.5259 14.3274L67.1017 14.2881ZM39.9697 10.0976C41.6622 10.0976 42.7847 11.5735 42.7847 13.1991C42.7847 14.8915 41.7291 16.2525 39.9523 16.2525C38.1755 16.2525 37.1373 14.8784 37.1373 13.186C37.1373 11.4935 38.2104 10.0976 39.9697 10.0976V10.0976ZM67.1758 11.9588L72.7404 11.9748C72.5383 10.5833 71.3823 10.0307 70.0592 10.0307C68.736 10.0307 67.5873 10.6516 67.1758 11.9588Z" fill="#F0FEFF"/>
</g>
<defs>
<clipPath id="clip0_111_1090">
<rect width="116.321" height="24" fill="white" transform="translate(0 0.979492)"/>
</clipPath>
</defs>
</svg>
