<svg width="87" height="26" viewBox="0 0 87 26" fill="none" xmlns="http://www.w3.org/2000/svg">
<g clip-path="url(#clip0_111_1164)">
<path d="M24.416 0V12L18.416 18L12.416 24L6.41602 18L12.416 12V12.055V12L24.416 0Z" fill="#59529D"/>
<path d="M24.416 12V24L18.416 18L24.416 12Z" fill="#5271B4"/>
<path d="M12.416 12L6.41602 18L0.416016 24V0L6.41602 6L12.416 12Z" fill="#BB4B96"/>
</g>
<path d="M35.464 19V14.2H39.512V12.28H35.464V9.408H40.472V7.48H33.536V19H35.464ZM44.319 10.816C43.959 11.04 43.671 11.368 43.455 11.744V10.36H41.751V19H43.687V14.608C43.687 13.608 44.039 12.8 44.831 12.368C45.367 12.056 46.095 12.016 46.615 12.16V10.36C45.839 10.24 44.959 10.376 44.319 10.816ZM54.5865 11.728C54.0185 10.584 52.7945 10.12 51.2585 10.12C49.2265 10.12 48.0345 11.088 47.6105 12.544L49.3705 13.096C49.6585 12.216 50.4825 11.888 51.2585 11.888C52.4345 11.888 52.9545 12.352 53.0265 13.344C51.5145 13.568 50.1785 13.752 49.2665 14.048C47.8985 14.52 47.2985 15.376 47.2985 16.632C47.2985 18.056 48.3145 19.24 50.1945 19.24C51.5705 19.24 52.4905 18.8 53.2265 17.84V19H54.9145V13.696C54.9145 12.952 54.8905 12.336 54.5865 11.728ZM52.8105 16.272C52.6185 16.872 51.8905 17.704 50.5785 17.704C49.6665 17.704 49.1865 17.24 49.1865 16.608C49.1865 16.048 49.5705 15.72 50.2345 15.472C50.8425 15.264 51.6265 15.144 53.0025 14.928C52.9945 15.328 52.9705 15.88 52.8105 16.272ZM66.1813 10.144C65.0613 10.144 64.0853 10.664 63.5493 11.52C63.0933 10.68 62.2453 10.144 61.0293 10.144C59.9893 10.144 59.0933 10.584 58.5253 11.296V10.36H56.8213V19H58.7653V13.68C58.7653 12.6 59.4053 11.864 60.3893 11.864C61.3973 11.864 62.0293 12.576 62.0293 13.776V19H63.9493V13.68C63.9493 12.536 64.6533 11.864 65.5813 11.864C66.5733 11.864 67.2133 12.568 67.2133 13.752V19H69.1413V13.264C69.1413 11.392 68.0933 10.144 66.1813 10.144ZM78.7673 15.216C78.9913 12.104 77.4233 10.12 74.7433 10.12C72.1993 10.12 70.4473 11.944 70.4473 14.776C70.4473 17.4 72.2313 19.24 74.8553 19.24C76.5193 19.24 78.0073 18.344 78.6713 16.776L76.7673 16.2C76.3913 17 75.6873 17.432 74.7433 17.432C73.4313 17.432 72.6633 16.64 72.5113 15.216H78.7673ZM74.8233 11.808C76.0153 11.808 76.6473 12.408 76.8073 13.76H72.5593C72.7833 12.48 73.5273 11.808 74.8233 11.808ZM82.9603 10.816C82.6003 11.04 82.3123 11.368 82.0963 11.744V10.36H80.3923V19H82.3283V14.608C82.3283 13.608 82.6803 12.8 83.4723 12.368C84.0083 12.056 84.7363 12.016 85.2563 12.16V10.36C84.4803 10.24 83.6003 10.376 82.9603 10.816Z" fill="white"/>
<defs>
<clipPath id="clip0_111_1164">
<rect width="24" height="24" fill="white" transform="translate(0.416016)"/>
</clipPath>
</defs>
</svg>
