<svg width="92" height="24" viewBox="0 0 92 24" fill="none" xmlns="http://www.w3.org/2000/svg">
<g clip-path="url(#clip0_111_1041)">
<path d="M54.8311 10.2856H57.2311V18.857H54.8311V17.7427C53.974 19.0285 52.8597 19.1142 52.174 19.1142C49.5169 19.1142 47.8026 17.057 47.8026 14.5713C47.8026 11.9999 49.5169 10.0285 52.0026 10.0285C52.6883 10.0285 53.974 10.1142 54.7454 11.3999V10.2856H54.8311ZM50.374 14.5713C50.374 15.9427 51.3169 16.9713 52.774 16.9713C54.1454 16.9713 55.174 15.9427 55.174 14.5713C55.174 13.1999 54.2311 12.1713 52.774 12.1713C51.4026 12.1713 50.374 13.1999 50.374 14.5713ZM61.9454 12.3427V18.857H59.5454V12.3427H58.6026V10.2856H59.5454V7.37132H61.9454V10.2856H63.574V12.3427H61.9454ZM69.2311 12.3427C68.6311 11.8285 68.1168 11.7427 67.8597 11.7427C67.2597 11.7427 66.9169 11.9999 66.9169 12.4285C66.9169 12.6856 67.0026 12.9427 67.6883 13.1999L68.2883 13.3713C68.974 13.6285 70.0026 13.8856 70.4311 14.5713C70.6883 14.9142 70.8597 15.4285 70.8597 16.0285C70.8597 16.7999 70.6026 17.5713 69.9169 18.1713C69.2311 18.7713 68.374 19.1142 67.3454 19.1142C65.5454 19.1142 64.6026 18.257 64.0026 17.657L65.2883 16.1999C65.8026 16.7142 66.4883 17.2285 67.174 17.2285C67.8597 17.2285 68.374 16.8856 68.374 16.2856C68.374 15.7713 67.9454 15.5142 67.6026 15.4285L67.0883 15.257C66.4883 14.9999 65.8026 14.7427 65.2883 14.2285C64.8597 13.7999 64.6026 13.2856 64.6026 12.5999C64.6026 11.7427 65.0311 11.057 65.4597 10.6285C66.1454 10.1142 67.0026 10.0285 67.6883 10.0285C68.2883 10.0285 69.3168 10.1142 70.4311 10.9713L69.2311 12.3427V12.3427ZM74.4597 11.3999C75.3169 10.1999 76.5169 10.0285 77.2026 10.0285C79.6883 10.0285 81.4026 11.9999 81.4026 14.5713C81.4026 17.1427 79.6883 19.1142 77.1169 19.1142C76.6026 19.1142 75.3168 19.0285 74.374 17.7427V18.857H72.0597V4.45703H74.4597V11.3999V11.3999ZM74.2026 14.5713C74.2026 15.9427 75.1454 16.9713 76.6026 16.9713C77.974 16.9713 79.0026 15.9427 79.0026 14.5713C79.0026 13.1999 78.0597 12.1713 76.6026 12.1713C75.1454 12.1713 74.2026 13.1999 74.2026 14.5713ZM85.3454 17.5713L81.2311 10.2856H84.0597L86.7168 15.1713L89.1169 10.2856H91.8597L85.0026 23.3999H82.2597L85.3454 17.5713ZM47.2026 11.7427H41.2026V14.1427H44.374C43.8597 15.7713 42.6597 16.8856 40.4311 16.8856C37.9454 16.8856 36.1454 14.8285 36.1454 12.3427C36.1454 9.85703 37.8597 7.71417 40.3454 7.71417C41.7169 7.71417 43.0883 8.39989 43.9454 9.51417L45.9169 8.22846C44.6311 6.42846 42.574 5.39989 40.3454 5.39989C36.574 5.39989 33.4883 8.4856 33.4883 12.3427C33.4883 16.1999 36.4026 19.2856 40.3454 19.2856C44.2883 19.2856 47.2026 16.1999 47.2026 12.3427C47.2883 12.0856 47.2026 11.9142 47.2026 11.7427V11.7427Z" fill="#EEF2FF"/>
<path d="M22.3454 12.0001H16.3454V13.7144H20.4597C19.8597 16.2858 17.974 18.4287 15.4883 19.2858L5.63114 9.42868C6.65971 6.42868 9.57399 4.28582 12.9169 4.28582C15.4883 4.28582 17.8026 5.57153 19.2597 7.54296L20.5454 6.42868C18.8311 4.11439 16.0883 2.57153 12.9169 2.57153C8.45971 2.57153 4.68828 5.74296 3.74542 9.94296L15.0597 21.2572C19.174 20.2287 22.3454 16.4572 22.3454 12.0001ZM3.48828 12.0858C3.48828 14.4858 4.43114 16.8001 6.23114 18.6001C8.03114 20.4001 10.4311 21.343 12.7454 21.343L3.48828 12.0858Z" fill="white"/>
<path d="M12.917 0C6.31699 0 0.916992 5.4 0.916992 12C0.916992 18.6 6.31699 24 12.917 24C19.517 24 24.917 18.6 24.917 12C24.917 5.4 19.517 0 12.917 0ZM6.23128 18.6857C4.43128 16.8857 3.48842 14.4857 3.48842 12.1714L12.8313 21.4286C10.4313 21.3429 8.03128 20.4857 6.23128 18.6857ZM14.9741 21.1714L3.74556 9.94286C4.68842 5.74286 8.45985 2.57143 12.917 2.57143C16.0884 2.57143 18.8313 4.11429 20.5456 6.42857L19.2598 7.54286C17.8027 5.57143 15.4884 4.28571 12.917 4.28571C9.57413 4.28571 6.74556 6.42857 5.63128 9.42857L15.4884 19.2857C17.9741 18.4286 19.8598 16.2857 20.4598 13.7143H16.3456V12H22.3456C22.3456 16.4571 19.1741 20.2286 14.9741 21.1714Z" fill="#663399"/>
</g>
<defs>
<clipPath id="clip0_111_1041">
<rect width="90.8571" height="24" fill="white" transform="translate(0.916992)"/>
</clipPath>
</defs>
</svg>
