<svg width="69" height="14" viewBox="0 0 69 14" fill="none" xmlns="http://www.w3.org/2000/svg">
<g clip-path="url(#clip0_111_1112)">
<path d="M45.3569 0.151855H57.2414V2.34542H52.527V13.8855H50.1696V2.34542H45.3569V0.151855Z" fill="#F0FEFF"/>
<path d="M25.8117 0.151855V2.34542H16.2855V5.87419H23.9464V8.06775H16.2855V11.6919H25.8117V13.8855H13.9282V2.34542H13.9272V0.151855H25.8117Z" fill="#F0FEFF"/>
<path d="M31.7465 0.157715H28.6616L39.7111 13.8913H42.805L37.2796 7.02924L42.7961 0.168193L39.7111 0.17296L35.735 5.11106L31.7465 0.157715Z" fill="#F0FEFF"/>
<path d="M34.9117 9.96769L33.3668 8.04688L28.6523 13.9018H31.7461L34.9117 9.96769Z" fill="#F0FEFF"/>
<path fill-rule="evenodd" clip-rule="evenodd" d="M14.0109 13.8856L2.94655 0.14624H0V13.8798H2.35724V3.08179L11.0496 13.8856H14.0109Z" fill="#F0FEFF"/>
<path d="M57.7716 13.8016C57.599 13.8016 57.4521 13.7418 57.3292 13.6222C57.2062 13.5026 57.1454 13.3578 57.147 13.1862C57.1454 13.0194 57.2062 12.8762 57.3292 12.7566C57.4521 12.637 57.599 12.5771 57.7716 12.5771C57.9377 12.5771 58.083 12.637 58.206 12.7566C58.3306 12.8762 58.3928 13.0194 58.3945 13.1862C58.3928 13.2996 58.3641 13.4034 58.3066 13.4963C58.2475 13.5907 58.1725 13.6647 58.0782 13.7182C57.9855 13.7733 57.8833 13.8016 57.7716 13.8016Z" fill="#F0FEFF"/>
<path d="M61.7947 8.01611H62.8393V12.0405C62.8377 12.4104 62.7577 12.7267 62.6014 12.9927C62.4433 13.2587 62.2244 13.4617 61.9433 13.6049C61.6638 13.7466 61.3363 13.819 60.9642 13.819C60.6239 13.819 60.319 13.7576 60.0474 13.638C59.7759 13.5184 59.5603 13.339 59.4022 13.1029C59.2423 12.8668 59.1641 12.5725 59.1641 12.2199H60.2104C60.2119 12.3742 60.2471 12.5079 60.3141 12.6197C60.3811 12.7314 60.4738 12.8164 60.592 12.8762C60.7117 12.936 60.8492 12.966 61.004 12.966C61.1718 12.966 61.3156 12.9313 61.4321 12.8605C61.5487 12.7912 61.6382 12.6874 61.7005 12.5489C61.7611 12.412 61.7932 12.242 61.7947 12.0405V8.01611Z" fill="#F0FEFF"/>
<path d="M67.1372 9.58996C67.1118 9.34601 66.9999 9.15557 66.8051 9.02022C66.6085 8.88329 66.3547 8.81562 66.0431 8.81562C65.8244 8.81562 65.636 8.84868 65.4795 8.9132C65.3229 8.9793 65.2015 9.06743 65.1184 9.17917C65.0354 9.29092 64.9939 9.41841 64.9906 9.56164C64.9906 9.68125 65.0193 9.78512 65.0753 9.87169C65.1312 9.95982 65.2062 10.0338 65.3037 10.0936C65.3994 10.155 65.5065 10.2053 65.6232 10.2463C65.7413 10.2872 65.8596 10.3218 65.9777 10.3502L66.5223 10.4839C66.7412 10.5343 66.9537 10.602 67.1565 10.6885C67.3592 10.7735 67.543 10.8821 67.7042 11.0127C67.8656 11.1434 67.9934 11.3008 68.0876 11.4849C68.1818 11.669 68.2298 11.8847 68.2298 12.1333C68.2298 12.4686 68.1435 12.7629 67.9693 13.0179C67.7953 13.2712 67.5445 13.4696 67.2155 13.6128C66.888 13.7544 66.492 13.8268 66.0256 13.8268C65.5752 13.8268 65.1823 13.7576 64.8517 13.6191C64.5196 13.4822 64.2607 13.2807 64.0738 13.0163C63.887 12.7519 63.7863 12.4292 63.772 12.0499H64.807C64.8214 12.2482 64.8853 12.4135 64.9939 12.5473C65.104 12.6795 65.2478 12.7771 65.4235 12.8432C65.6009 12.9077 65.7988 12.9407 66.0177 12.9407C66.2461 12.9407 66.4473 12.9061 66.6214 12.8384C66.7938 12.7708 66.9296 12.6763 67.0271 12.5536C67.1262 12.4324 67.1757 12.2892 67.1772 12.1255C67.1757 11.976 67.1308 11.8516 67.0446 11.754C66.9568 11.6565 66.8354 11.5746 66.6804 11.5085C66.524 11.4424 66.3419 11.3826 66.1342 11.3307L65.473 11.1638C64.9954 11.0426 64.6169 10.8585 64.3405 10.6114C64.0627 10.3643 63.9252 10.037 63.9252 9.62617C63.9252 9.28936 64.0179 8.99348 64.2049 8.74008C64.39 8.48669 64.6441 8.28995 64.9651 8.14987C65.2878 8.00823 65.6519 7.93896 66.0575 7.93896C66.4697 7.93896 66.8305 8.00823 67.1421 8.14987C67.4534 8.28995 67.698 8.48512 67.8751 8.73377C68.0525 8.98245 68.1451 9.26732 68.1499 9.58996H67.1372Z" fill="#F0FEFF"/>
</g>
<defs>
<clipPath id="clip0_111_1112">
<rect width="68.23" height="13.8538" fill="white" transform="translate(0 0.14624)"/>
</clipPath>
</defs>
</svg>
