<svg width="93" height="24" viewBox="0 0 93 24" fill="none" xmlns="http://www.w3.org/2000/svg">
<g clip-path="url(#clip0_111_1136)">
<path fill-rule="evenodd" clip-rule="evenodd" d="M20.1122 3.65967H6.77441V10.3472H13.3373C13.5711 10.3472 13.7607 10.5368 13.7607 10.7706V17.2429H20.5357V4.08393C20.5358 4.02825 20.5249 3.9731 20.5037 3.92163C20.4825 3.87016 20.4513 3.82338 20.4119 3.78398C20.3726 3.74457 20.3259 3.71331 20.2745 3.69198C20.223 3.67065 20.1679 3.65967 20.1122 3.65967V3.65967Z" fill="#8E75FF"/>
<path opacity="0.405" fill-rule="evenodd" clip-rule="evenodd" d="M6.77347 3.65967V10.3472H0.51644C0.4744 10.3471 0.43333 10.3345 0.398444 10.3111C0.363558 10.2876 0.336429 10.2543 0.320501 10.2154C0.304574 10.1765 0.300566 10.1337 0.308986 10.0925C0.317407 10.0513 0.337876 10.0136 0.367795 9.98405L6.77347 3.65967ZM14.1213 23.5742C14.0916 23.6035 14.0538 23.6233 14.0128 23.6312C13.9718 23.6391 13.9293 23.6347 13.8908 23.6186C13.8523 23.6025 13.8194 23.5753 13.7962 23.5406C13.773 23.5059 13.7606 23.465 13.7606 23.4233V17.2429H20.5355L14.1213 23.5735V23.5742Z" fill="#8E75FF"/>
<path opacity="0.405" d="M6.77441 10.3472H13.5502C13.6663 10.3472 13.7615 10.4416 13.7615 10.5585V17.2429H7.19867C7.08636 17.2429 6.97864 17.1983 6.89922 17.1189C6.81981 17.0395 6.77519 16.9317 6.77519 16.8194V10.3472H6.77441Z" fill="#8E75FF"/>
<path fill-rule="evenodd" clip-rule="evenodd" d="M88.8542 3.2376C89.2328 3.61231 89.6795 3.79889 90.1951 3.79889C90.727 3.79889 91.1822 3.61231 91.5608 3.2376C91.9394 2.86289 92.1283 2.4216 92.1283 1.91141C92.1283 1.40199 91.9394 0.956056 91.5608 0.573604C91.3849 0.389183 91.1728 0.243047 90.9378 0.144337C90.7028 0.0456263 90.45 -0.00353532 90.1951 -7.32018e-05C89.6795 -7.32018e-05 89.2328 0.191153 88.8542 0.57283C88.4756 0.956056 88.2867 1.40122 88.2867 1.91218C88.2867 2.4216 88.4756 2.86289 88.8542 3.2376V3.2376ZM47.7755 8.12431C47.7755 8.16302 47.743 8.19554 47.7035 8.19554H45.0442V13.1659C45.0442 13.5801 45.1494 13.8828 45.3585 14.074C45.5675 14.2652 45.8741 14.3721 46.2767 14.3961C46.6452 14.4185 47.0942 14.417 47.6245 14.3922L47.6996 14.3883C47.7093 14.3878 47.719 14.3892 47.7281 14.3926C47.7372 14.3959 47.7455 14.4011 47.7525 14.4078C47.7596 14.4144 47.7652 14.4225 47.769 14.4314C47.7728 14.4403 47.7748 14.4499 47.7747 14.4595V17.1158C47.7748 17.1334 47.7684 17.1505 47.7567 17.1636C47.745 17.1768 47.7288 17.1851 47.7113 17.187L47.6625 17.1924C45.5799 17.4115 44.1066 17.2079 43.2442 16.5824C42.3662 15.9452 41.928 14.8064 41.928 13.1659V8.19554H39.8965C39.8777 8.19554 39.8595 8.18804 39.8462 8.17468C39.8328 8.16132 39.8253 8.14321 39.8253 8.12431V5.30393C39.8253 5.26522 39.8571 5.2327 39.8965 5.2327H41.9273V3.26083C41.9273 3.20354 41.9613 3.15244 42.0132 3.12922L44.9443 1.85412C44.9551 1.84919 44.9671 1.84707 44.979 1.84796C44.9909 1.84884 45.0023 1.85269 45.0124 1.85916C45.0224 1.86564 45.0306 1.87452 45.0363 1.885C45.042 1.89548 45.045 1.90723 45.0449 1.91915V5.2327H47.7035C47.7422 5.2327 47.7747 5.26444 47.7747 5.30393V8.12431H47.7755ZM53.4271 7.28819C53.7167 6.52328 54.1959 5.9496 54.864 5.56715C55.5232 5.19187 56.2686 4.99444 57.0271 4.99425C57.0666 4.99425 57.0991 5.02599 57.0991 5.06625V8.30625C57.0991 8.32246 57.0957 8.33849 57.0891 8.3533C57.0825 8.36811 57.0729 8.38138 57.0608 8.39225C57.0488 8.40311 57.0346 8.41134 57.0192 8.4164C57.0038 8.42145 56.9875 8.42323 56.9714 8.42161C56.0725 8.34109 55.2651 8.53696 54.5497 9.00844C53.8011 9.5016 53.4271 10.3222 53.4271 11.4696V17.1088C53.4271 17.1183 53.4253 17.1276 53.4216 17.1363C53.418 17.145 53.4127 17.1528 53.406 17.1595C53.3993 17.1661 53.3914 17.1713 53.3826 17.1749C53.3739 17.1784 53.3645 17.1802 53.3551 17.1801H50.3807C50.3618 17.1801 50.3437 17.1726 50.3303 17.1592C50.317 17.1458 50.3094 17.1277 50.3094 17.1088V5.30315C50.3094 5.26444 50.3412 5.23193 50.3807 5.23193H53.3551C53.3938 5.23193 53.4264 5.26367 53.4264 5.30315V7.28664L53.4271 7.28819ZM68.1647 5.2327C68.1553 5.2326 68.1459 5.23437 68.1372 5.2379C68.1284 5.24143 68.1205 5.24666 68.1138 5.25329C68.1071 5.25991 68.1018 5.2678 68.0982 5.27649C68.0945 5.28518 68.0927 5.29451 68.0927 5.30393V6.64328C67.159 5.47967 65.846 4.89825 64.1543 4.89825C62.544 4.89825 61.1621 5.50754 60.0109 6.72612C58.8589 7.9447 58.2829 9.43812 58.2829 11.2064C58.2829 12.9746 58.8589 14.4681 60.0109 15.6866C61.1621 16.9052 62.544 17.5145 64.1543 17.5145C65.846 17.5145 67.1582 16.9331 68.0927 15.7703V17.1088C68.0927 17.1475 68.1252 17.1801 68.1647 17.1801H71.1383C71.1778 17.1801 71.2104 17.1483 71.2104 17.1088V5.30315C71.2104 5.29373 71.2085 5.28441 71.2049 5.27572C71.2012 5.26702 71.1959 5.25914 71.1892 5.25251C71.1825 5.24589 71.1746 5.24066 71.1658 5.23712C71.1571 5.23359 71.1478 5.23182 71.1383 5.23193H68.1647V5.2327ZM62.3427 13.6435C62.9706 14.2652 63.7672 14.5757 64.735 14.5757C65.7012 14.5757 66.5025 14.2606 67.1389 13.6312C67.7753 13.0025 68.0927 12.1943 68.0927 11.2064C68.0927 10.2185 67.7753 9.41025 67.1389 8.78083C66.5025 8.15219 65.7012 7.83709 64.7342 7.83709C63.768 7.83709 62.9706 8.15219 62.342 8.78161C61.7149 9.41025 61.3998 10.2185 61.3998 11.2064C61.3998 12.1943 61.7141 13.0064 62.3427 13.6435V13.6435ZM85.0653 6.72612C83.9133 5.50754 82.5236 4.89825 80.8971 4.89825C79.2054 4.89825 77.9009 5.47967 76.9827 6.64251V5.30393C76.9827 5.28504 76.9752 5.26692 76.9619 5.25356C76.9485 5.24021 76.9304 5.2327 76.9115 5.2327H73.9371C73.9182 5.2327 73.9 5.24021 73.8867 5.25356C73.8733 5.26692 73.8658 5.28504 73.8658 5.30393V21.8872C73.8658 21.9266 73.8976 21.9592 73.9371 21.9592H76.9115C76.9502 21.9592 76.9827 21.9266 76.9827 21.8872V15.7703C77.9009 16.9331 79.2054 17.5145 80.8971 17.5145C82.5236 17.5145 83.9133 16.9052 85.0653 15.6866C86.2165 14.4681 86.7925 12.9746 86.7925 11.2064C86.7925 9.43812 86.2165 7.9447 85.0653 6.72612V6.72612ZM77.9249 13.6435C78.5536 14.2652 79.3502 14.5757 80.3172 14.5757C81.2834 14.5757 82.0847 14.2606 82.7211 13.6312C83.3574 13.0025 83.6756 12.1943 83.6756 11.2064C83.6756 10.2185 83.3574 9.41025 82.7211 8.78083C82.0847 8.15219 81.2834 7.83709 80.3172 7.83709C79.3502 7.83709 78.5536 8.15219 77.9249 8.78161C77.2971 9.41025 76.9827 10.2185 76.9827 11.2064C76.9827 12.1943 77.2971 13.0064 77.9249 13.6435V13.6435ZM88.7203 17.1801C88.7014 17.1801 88.6833 17.1726 88.6699 17.1592C88.6566 17.1458 88.6491 17.1277 88.6491 17.1088V5.30315C88.6491 5.26444 88.6808 5.23193 88.7203 5.23193H91.6947C91.7342 5.23193 91.766 5.26367 91.766 5.30315V17.1096C91.766 17.1285 91.7585 17.1466 91.7451 17.16C91.7317 17.1733 91.7136 17.1808 91.6947 17.1808H88.7203V17.1801ZM33.1448 9.40251C32.7174 9.20354 32.5045 8.94419 32.5045 8.62599C32.5045 8.32328 32.6369 8.08406 32.9033 7.90909C33.1688 7.73412 33.5033 7.64586 33.9058 7.64586C34.6777 7.64586 35.2607 7.94393 35.6555 8.53928C35.6687 8.5595 35.6885 8.57444 35.7116 8.58152C35.7347 8.58859 35.7595 8.58734 35.7817 8.57799L38.4124 7.42677C38.4215 7.42269 38.4296 7.41674 38.4363 7.40932C38.443 7.4019 38.448 7.39316 38.451 7.38367C38.4541 7.37419 38.4552 7.36416 38.4541 7.35425C38.453 7.34433 38.4499 7.33475 38.4449 7.32612C38.4146 7.27564 38.3837 7.22558 38.352 7.17593C37.9022 6.47528 37.3193 5.9527 36.5876 5.55554C35.7825 5.11735 34.8883 4.89825 33.9058 4.89825C32.6005 4.89825 31.5097 5.23657 30.631 5.91399C29.7538 6.59064 29.3149 7.5189 29.3149 8.69722C29.3149 9.47838 29.5285 10.1272 29.9551 10.6451C30.3674 11.1522 30.9045 11.5433 31.5136 11.7801C32.1252 12.0185 32.7376 12.2183 33.35 12.377C33.9616 12.5364 34.4818 12.7161 34.9084 12.915C35.335 13.114 35.5487 13.3726 35.5487 13.6915C35.5487 14.3767 34.9928 14.7189 33.8818 14.7189C32.8235 14.7189 32.0904 14.3318 31.6824 13.5592C31.666 13.5266 31.6378 13.5015 31.6036 13.489C31.5693 13.4765 31.5316 13.4775 31.4981 13.4918L28.8751 14.6415C28.8664 14.6453 28.8585 14.6509 28.8519 14.6578C28.8454 14.6648 28.8403 14.673 28.837 14.6819C28.8336 14.6909 28.8322 14.7004 28.8326 14.71C28.833 14.7195 28.8354 14.7289 28.8395 14.7375L28.8689 14.7971C29.7856 16.6087 31.4563 17.5145 33.8818 17.5145C35.2669 17.5145 36.4227 17.1839 37.3487 16.5235C38.2754 15.8616 38.7383 14.9179 38.7383 13.6915C38.7383 12.8786 38.5247 12.202 38.0981 11.6601C37.6959 11.1371 37.1564 10.7361 36.5396 10.5019C35.9394 10.2745 35.3262 10.083 34.7033 9.92819C34.0909 9.77644 33.5714 9.60148 33.1448 9.40173V9.40251Z" fill="white"/>
</g>
<defs>
<clipPath id="clip0_111_1136">
<rect width="92.129" height="24" fill="white"/>
</clipPath>
</defs>
</svg>
