<svg width="115" height="15" viewBox="0 0 115 15" fill="none" xmlns="http://www.w3.org/2000/svg">
<g clip-path="url(#clip0_111_1048)">
<path fill-rule="evenodd" clip-rule="evenodd" d="M11.889 0C8.73396 0 6.76206 1.57752 5.9733 4.73255C7.15644 3.15503 8.53677 2.56346 10.1143 2.95784C11.0143 3.18264 11.6576 3.83599 12.3697 4.55858C13.5296 5.73602 14.8722 7.09882 17.8047 7.09882C20.9597 7.09882 22.9316 5.52131 23.7204 2.36627C22.5372 3.94379 21.1569 4.53536 19.5794 4.14098C18.6793 3.91618 18.036 3.26283 17.324 2.54024C16.1641 1.3628 14.8214 0 11.889 0ZM5.9733 7.09882C2.81827 7.09882 0.846375 8.67634 0.0576172 11.8314C1.24075 10.2539 2.62108 9.66229 4.1986 10.0567C5.09866 10.2819 5.74193 10.9348 6.45401 11.6574C7.61392 12.8348 8.95656 14.1976 11.889 14.1976C15.044 14.1976 17.0159 12.6201 17.8047 9.4651C16.6215 11.0426 15.2412 11.6342 13.6637 11.2398C12.7636 11.015 12.1204 10.3617 11.4083 9.63906C10.2484 8.46162 8.90573 7.09882 5.9733 7.09882Z" fill="#38BDF8"/>
<path fill-rule="evenodd" clip-rule="evenodd" d="M35.5499 5.98229H33.4851V9.97866C33.4851 11.0444 34.1845 11.0277 35.5499 10.9611V12.5763C32.7857 12.9093 31.6867 12.1434 31.6867 9.97866V5.98229H30.1548V4.25051H31.6867V2.01395L33.4851 1.4811V4.25051H35.5499V5.98229ZM43.4208 4.25051H45.2192V12.5763H43.4208V11.3774C42.7881 12.2599 41.8056 12.7928 40.5068 12.7928C38.2422 12.7928 36.3606 10.8778 36.3606 8.41342C36.3606 5.93234 38.2422 4.03404 40.5068 4.03404C41.8056 4.03404 42.7881 4.56691 43.4208 5.43279V4.25051ZM40.7899 11.0777C42.2885 11.0777 43.4208 9.96201 43.4208 8.41342C43.4208 6.86482 42.2885 5.74917 40.7899 5.74917C39.2912 5.74917 38.1589 6.86482 38.1589 8.41342C38.1589 9.96201 39.2912 11.0777 40.7899 11.0777ZM48.2165 3.00165C47.5837 3.00165 47.0675 2.4688 47.0675 1.85269C47.0679 1.54814 47.1893 1.25624 47.4045 1.04089C47.6201 0.825545 47.9119 0.704309 48.2165 0.70373C48.521 0.704309 48.8129 0.825545 49.0284 1.04089C49.2436 1.25624 49.365 1.54814 49.3654 1.85269C49.3654 2.4688 48.8492 3.00165 48.2165 3.00165ZM47.3173 12.5763V4.25051H49.1157V12.5763H47.3173ZM51.1971 12.5763V0.420654H52.9955V12.5763H51.1971ZM64.6682 4.25051H66.5665L63.9522 12.5763H62.1871L60.4554 6.96473L58.7069 12.5763H56.9419L54.3276 4.25051H56.2259L57.8411 9.99532L59.5895 4.25051H61.3046L63.0364 9.99532L64.6682 4.25051ZM68.7978 3.00165C68.165 3.00165 67.6488 2.4688 67.6488 1.85269C67.6493 1.54814 67.7707 1.25624 67.9858 1.04089C68.2014 0.825545 68.4932 0.704309 68.7978 0.70373C69.1023 0.704309 69.3942 0.825545 69.6098 1.04089C69.8249 1.25624 69.9463 1.54814 69.9468 1.85269C69.9468 2.4688 69.4306 3.00165 68.7978 3.00165ZM67.8986 12.5763V4.25051H69.697V12.5763H67.8986ZM76.1578 4.03404C78.0228 4.03404 79.3549 5.29958 79.3549 7.46428V12.5763H77.5565V7.64745C77.5565 6.38193 76.8238 5.71587 75.6915 5.71587C74.5093 5.71587 73.5768 6.41523 73.5768 8.11369V12.5763H71.7784V4.25051H73.5768V5.31623C74.1263 4.45035 75.0255 4.03404 76.1578 4.03404ZM87.8805 0.920201H89.6789V12.5763H87.8805V11.3774C87.2477 12.2599 86.2653 12.7928 84.9665 12.7928C82.7018 12.7928 80.8202 10.8778 80.8202 8.41342C80.8202 5.93234 82.7018 4.03404 84.9665 4.03404C86.2653 4.03404 87.2477 4.56691 87.8805 5.43279V0.920201ZM85.2495 11.0777C86.7482 11.0777 87.8805 9.96201 87.8805 8.41342C87.8805 6.86482 86.7482 5.74917 85.2495 5.74917C83.7509 5.74917 82.6186 6.86482 82.6186 8.41342C82.6186 9.96201 83.7509 11.0777 85.2495 11.0777ZM95.7067 12.7928C93.1923 12.7928 91.3107 10.8778 91.3107 8.41342C91.3107 5.93234 93.1923 4.03404 95.7067 4.03404C97.3386 4.03404 98.7539 4.88329 99.42 6.18211L97.8714 7.08129C97.5051 6.29867 96.6892 5.79912 95.6901 5.79912C94.2247 5.79912 93.1091 6.91478 93.1091 8.41342C93.1091 9.91206 94.2247 11.0277 95.6901 11.0277C96.6892 11.0277 97.5051 10.5115 97.9047 9.74554L99.4533 10.6281C98.754 11.9435 97.3386 12.7928 95.7067 12.7928ZM102.417 6.54844C102.417 8.06374 106.897 7.1479 106.897 10.2284C106.897 11.8936 105.448 12.7928 103.65 12.7928C101.984 12.7928 100.785 12.0435 100.253 10.8445L101.801 9.94536C102.068 10.6947 102.734 11.1443 103.65 11.1443C104.449 11.1443 105.065 10.8778 105.065 10.2118C105.065 8.7298 100.586 9.56238 100.586 6.58175C100.586 5.0165 101.934 4.03404 103.633 4.03404C104.998 4.03404 106.131 4.66682 106.713 5.76582L105.198 6.61505C104.898 5.96564 104.316 5.66591 103.633 5.66591C102.983 5.66591 102.417 5.94899 102.417 6.54844ZM110.094 6.54844C110.094 8.06374 114.573 7.1479 114.573 10.2284C114.573 11.8936 113.124 12.7928 111.326 12.7928C109.661 12.7928 108.462 12.0435 107.929 10.8445L109.478 9.94536C109.744 10.6947 110.41 11.1443 111.326 11.1443C112.125 11.1443 112.741 10.8778 112.741 10.2118C112.741 8.7298 108.262 9.56238 108.262 6.58175C108.262 5.0165 109.611 4.03404 111.309 4.03404C112.675 4.03404 113.807 4.66682 114.39 5.76582L112.874 6.61505C112.575 5.96564 111.992 5.66591 111.309 5.66591C110.66 5.66591 110.094 5.94899 110.094 6.54844Z" fill="white"/>
</g>
<defs>
<clipPath id="clip0_111_1048">
<rect width="114.808" height="14.4606" fill="white" transform="translate(0.0576172)"/>
</clipPath>
</defs>
</svg>
