<svg width="108" height="24" viewBox="0 0 108 24" fill="none" xmlns="http://www.w3.org/2000/svg">
<g clip-path="url(#clip0_111_1121)">
<path fill-rule="evenodd" clip-rule="evenodd" d="M95.845 0.0070846C93.1055 -0.0873767 90.3663 0.762774 88.0991 2.55754L89.6105 3.40768C91.4054 2.08523 93.6722 1.51846 95.845 1.61292V0.0070846Z" fill="url(#paint0_linear_111_1121)"/>
<path fill-rule="evenodd" clip-rule="evenodd" d="M103.873 3.59663C101.984 1.61294 99.5281 0.384946 96.8833 0.101562V1.7074C99.1505 2.08525 101.134 3.12432 102.74 4.73017L103.873 3.59663Z" fill="url(#paint1_linear_111_1121)"/>
<path fill-rule="evenodd" clip-rule="evenodd" d="M107.275 11.3422C107.181 8.8862 106.236 6.4302 104.63 4.35205L103.497 5.48559C104.819 7.28037 105.575 9.26405 105.669 11.3422H107.275Z" fill="url(#paint2_linear_111_1121)"/>
<path fill-rule="evenodd" clip-rule="evenodd" d="M104.63 19.4659C106.236 17.3878 107.181 14.9318 107.275 12.4758H105.669C105.575 14.554 104.819 16.5377 103.497 18.3324L104.63 19.4659Z" fill="url(#paint3_linear_111_1121)"/>
<path fill-rule="evenodd" clip-rule="evenodd" d="M96.8833 23.717C99.4337 23.4336 101.984 22.2056 103.873 20.2219L102.74 19.0884C101.134 20.7887 99.0558 21.8277 96.8833 22.1111V23.717Z" fill="url(#paint4_linear_111_1121)"/>
<path fill-rule="evenodd" clip-rule="evenodd" d="M88.0991 21.2608C90.3663 23.0555 93.1055 23.9057 95.845 23.8113V22.2054C93.6722 22.2999 91.4998 21.7331 89.6105 20.4106L88.0991 21.2608Z" fill="url(#paint5_linear_111_1121)"/>
<path d="M6.8233 8.45567V18.24H3.56185V8.45567H0.882812V5.69343H9.50234V8.45567H6.8233ZM13.3824 5.69343V12.5158C13.3824 12.8819 13.3935 13.2591 13.4157 13.6474C13.449 14.0245 13.5322 14.3684 13.6653 14.679C13.8095 14.9897 14.0314 15.2448 14.3309 15.4445C14.6304 15.633 15.052 15.7274 15.5956 15.7274C16.1391 15.7274 16.5551 15.633 16.8436 15.4445C17.1431 15.2448 17.365 14.9897 17.5092 14.679C17.6534 14.3684 17.7366 14.0245 17.7588 13.6474C17.792 13.2591 17.8087 12.8819 17.8087 12.5158V5.69343H21.0535V12.9651C21.0535 14.9175 20.6042 16.343 19.7056 17.2416C18.8182 18.1402 17.4482 18.5894 15.5956 18.5894C13.743 18.5894 12.3674 18.1402 11.4688 17.2416C10.5703 16.343 10.121 14.9175 10.121 12.9651V5.69343H13.3824ZM26.1192 11.3011H26.7349C27.3783 11.3011 27.8719 11.168 28.2158 10.9018C28.5597 10.6355 28.7317 10.2528 28.7317 9.75359C28.7317 9.25439 28.5597 8.87167 28.2158 8.60543C27.8719 8.33919 27.3783 8.20607 26.7349 8.20607H26.1192V11.3011ZM33.2909 18.24H29.2309L26.1192 13.4144V18.24H22.8578V5.69343H27.933C28.6318 5.69343 29.242 5.79881 29.7634 6.00959C30.2847 6.20927 30.7118 6.48662 31.0446 6.84159C31.3885 7.19657 31.6437 7.60703 31.8101 8.07295C31.9876 8.53887 32.0763 9.03807 32.0763 9.57055C32.0763 10.5246 31.8434 11.3011 31.3774 11.9002C30.9226 12.4881 30.2459 12.8874 29.3474 13.0982L33.2909 18.24ZM37.0845 15.7107H37.8001C38.6212 15.7107 39.209 15.6053 39.5639 15.3946C39.9191 15.1838 40.0964 14.8454 40.0964 14.3795C40.0964 13.9136 39.9191 13.5753 39.5639 13.3645C39.209 13.1537 38.6212 13.0483 37.8001 13.0483H37.0845V15.7107ZM37.0845 10.6189H37.6836C38.7044 10.6189 39.2145 10.214 39.2145 9.40415C39.2145 8.59433 38.7044 8.18943 37.6836 8.18943H37.0845V10.6189ZM33.8231 5.69343H38.682C39.8359 5.69343 40.7121 5.97078 41.3111 6.52543C41.9101 7.08009 42.2097 7.87881 42.2097 8.92159C42.2097 9.55391 42.0932 10.0809 41.8602 10.5024C41.6385 10.9129 41.2945 11.2623 40.8285 11.5507C41.2945 11.6394 41.6884 11.7781 42.01 11.9667C42.3428 12.1442 42.609 12.3661 42.8087 12.6323C43.0196 12.8986 43.1693 13.1981 43.258 13.5309C43.3469 13.8637 43.3911 14.2186 43.3911 14.5958C43.3911 15.1838 43.2858 15.7052 43.0749 16.16C42.8753 16.6148 42.5869 16.9975 42.2097 17.3082C41.8436 17.6188 41.3943 17.8517 40.8618 18.007C40.3293 18.1623 39.7303 18.24 39.0647 18.24H33.8231V5.69343ZM47.2605 11.9667C47.2605 12.4659 47.3546 12.9263 47.5434 13.3478C47.7319 13.7694 47.9869 14.1355 48.3089 14.4461C48.6305 14.7567 49.002 15.0007 49.4237 15.1782C49.8564 15.3446 50.3111 15.4278 50.7882 15.4278C51.265 15.4278 51.7143 15.3446 52.1361 15.1782C52.5687 15.0007 52.9457 14.7567 53.2676 14.4461C53.6004 14.1355 53.8609 13.7694 54.0497 13.3478C54.2381 12.9263 54.3325 12.4659 54.3325 11.9667C54.3325 11.4675 54.2381 11.0071 54.0497 10.5856C53.8609 10.1641 53.6004 9.79798 53.2676 9.48735C52.9457 9.17673 52.5687 8.93823 52.1361 8.77183C51.7143 8.59433 51.265 8.50559 50.7882 8.50559C50.3111 8.50559 49.8564 8.59433 49.4237 8.77183C49.002 8.93823 48.6305 9.17673 48.3089 9.48735C47.9869 9.79798 47.7319 10.1641 47.5434 10.5856C47.3546 11.0071 47.2605 11.4675 47.2605 11.9667ZM43.8493 11.9667C43.8493 11.0349 44.0212 10.1696 44.3652 9.37087C44.7089 8.56105 45.186 7.85663 45.7962 7.25759C46.4061 6.65855 47.1329 6.19263 47.9761 5.85983C48.8301 5.51593 49.7674 5.34399 50.7882 5.34399C51.7975 5.34399 52.7293 5.51593 53.5837 5.85983C54.4378 6.19263 55.17 6.65855 55.7802 7.25759C56.4013 7.85663 56.8839 8.56105 57.2279 9.37087C57.5716 10.1696 57.7437 11.0349 57.7437 11.9667C57.7437 12.8986 57.5716 13.7694 57.2279 14.5792C56.8839 15.3779 56.4013 16.0768 55.7802 16.6758C55.17 17.2749 54.4378 17.7463 53.5837 18.0902C52.7293 18.423 51.7975 18.5894 50.7882 18.5894C49.7674 18.5894 48.8301 18.423 47.9761 18.0902C47.1329 17.7463 46.4061 17.2749 45.7962 16.6758C45.186 16.0768 44.7089 15.3779 44.3652 14.5792C44.0212 13.7694 43.8493 12.8986 43.8493 11.9667ZM62.2333 11.3011H62.849C63.4922 11.3011 63.986 11.168 64.33 10.9018C64.6737 10.6355 64.8458 10.2528 64.8458 9.75359C64.8458 9.25439 64.6737 8.87167 64.33 8.60543C63.986 8.33919 63.4922 8.20607 62.849 8.20607H62.2333V11.3011ZM69.4052 18.24H65.345L62.2333 13.4144V18.24H58.9719V5.69343H64.0471C64.746 5.69343 65.3559 5.79881 65.8775 6.00959C66.3988 6.20927 66.826 6.48662 67.1588 6.84159C67.5025 7.19657 67.7578 7.60703 67.9242 8.07295C68.1015 8.53887 68.1905 9.03807 68.1905 9.57055C68.1905 10.5246 67.9575 11.3011 67.4916 11.9002C67.0365 12.4881 66.3601 12.8874 65.4615 13.0982L69.4052 18.24ZM77.0759 8.45567H73.1988V10.5523H76.8596V13.3146H73.1988V15.4778H77.0759V18.24H69.9373V5.69343H77.0759V8.45567ZM81.8567 11.4509H82.9383C84.1364 11.4509 84.7354 10.9295 84.7354 9.88671C84.7354 8.84393 84.1364 8.32255 82.9383 8.32255H81.8567V11.4509ZM81.8567 18.24H78.5953V5.69343H83.7869C85.1959 5.69343 86.2717 6.05951 87.0151 6.79167C87.7693 7.52383 88.1466 8.55551 88.1466 9.88671C88.1466 11.2179 87.7693 12.2496 87.0151 12.9818C86.2717 13.7139 85.1959 14.08 83.7869 14.08H81.8567V18.24ZM91.8861 11.9667C91.8861 12.4659 91.9805 12.9263 92.169 13.3478C92.3575 13.7694 92.6129 14.1355 92.9345 14.4461C93.2561 14.7567 93.6279 15.0007 94.0493 15.1782C94.482 15.3446 94.9367 15.4278 95.4138 15.4278C95.8909 15.4278 96.3402 15.3446 96.7617 15.1782C97.1943 15.0007 97.5716 14.7567 97.8932 14.4461C98.226 14.1355 98.4868 13.7694 98.6753 13.3478C98.8637 12.9263 98.9581 12.4659 98.9581 11.9667C98.9581 11.4675 98.8637 11.0071 98.6753 10.5856C98.4868 10.1641 98.226 9.79798 97.8932 9.48735C97.5716 9.17673 97.1943 8.93823 96.7617 8.77183C96.3402 8.59433 95.8909 8.50559 95.4138 8.50559C94.9367 8.50559 94.482 8.59433 94.0493 8.77183C93.6279 8.93823 93.2561 9.17673 92.9345 9.48735C92.6129 9.79798 92.3575 10.1641 92.169 10.5856C91.9805 11.0071 91.8861 11.4675 91.8861 11.9667ZM88.4749 11.9667C88.4749 11.0349 88.6468 10.1696 88.9908 9.37087C89.3348 8.56105 89.8116 7.85663 90.4218 7.25759C91.0321 6.65855 91.7585 6.19263 92.6017 5.85983C93.4557 5.51593 94.3933 5.34399 95.4138 5.34399C96.4234 5.34399 97.3553 5.51593 98.2093 5.85983C99.0634 6.19263 99.7956 6.65855 100.406 7.25759C101.027 7.85663 101.51 8.56105 101.854 9.37087C102.198 10.1696 102.369 11.0349 102.369 11.9667C102.369 12.8986 102.198 13.7694 101.854 14.5792C101.51 15.3779 101.027 16.0768 100.406 16.6758C99.7956 17.2749 99.0634 17.7463 98.2093 18.0902C97.3553 18.423 96.4234 18.5894 95.4138 18.5894C94.3933 18.5894 93.4557 18.423 92.6017 18.0902C91.7585 17.7463 91.0321 17.2749 90.4218 16.6758C89.8116 16.0768 89.3348 15.3779 88.9908 14.5792C88.6468 13.7694 88.4749 12.8986 88.4749 11.9667Z" fill="#F0FEFF"/>
</g>
<defs>
<linearGradient id="paint0_linear_111_1121" x1="97.687" y1="-1.3144e-08" x2="97.687" y2="23.8184" gradientUnits="userSpaceOnUse">
<stop stop-color="#1E90FF"/>
<stop offset="1" stop-color="#FF1E56"/>
</linearGradient>
<linearGradient id="paint1_linear_111_1121" x1="97.6862" y1="2.13728e-05" x2="97.6862" y2="23.8184" gradientUnits="userSpaceOnUse">
<stop stop-color="#1E90FF"/>
<stop offset="1" stop-color="#FF1E56"/>
</linearGradient>
<linearGradient id="paint2_linear_111_1121" x1="97.6873" y1="-0.00023742" x2="97.6873" y2="23.8182" gradientUnits="userSpaceOnUse">
<stop stop-color="#1E90FF"/>
<stop offset="1" stop-color="#FF1E56"/>
</linearGradient>
<linearGradient id="paint3_linear_111_1121" x1="97.6873" y1="-0.000137862" x2="97.6873" y2="23.8183" gradientUnits="userSpaceOnUse">
<stop stop-color="#1E90FF"/>
<stop offset="1" stop-color="#FF1E56"/>
</linearGradient>
<linearGradient id="paint4_linear_111_1121" x1="97.6862" y1="0.000125065" x2="97.6862" y2="23.8185" gradientUnits="userSpaceOnUse">
<stop stop-color="#1E90FF"/>
<stop offset="1" stop-color="#FF1E56"/>
</linearGradient>
<linearGradient id="paint5_linear_111_1121" x1="97.687" y1="-7.37678e-05" x2="97.687" y2="23.8183" gradientUnits="userSpaceOnUse">
<stop stop-color="#1E90FF"/>
<stop offset="1" stop-color="#FF1E56"/>
</linearGradient>
<clipPath id="clip0_111_1121">
<rect width="106.56" height="24" fill="white" transform="translate(0.714844)"/>
</clipPath>
</defs>
</svg>
