<svg width="116" height="25" viewBox="0 0 116 25" fill="none" xmlns="http://www.w3.org/2000/svg">
<g clip-path="url(#clip0_111_1045)">
<path d="M2.62305 12.959C2.62305 17.0338 4.99106 20.5551 8.42486 22.2239L3.51431 8.76953C2.94312 10.0498 2.62305 11.4666 2.62305 12.959V12.959Z" fill="#21759B"/>
<path d="M19.8671 12.4395C19.8671 11.1673 19.4101 10.2862 19.0181 9.60042C18.4963 8.75245 18.0072 8.03435 18.0072 7.18638C18.0072 6.24007 18.7249 5.35919 19.7358 5.35919C19.7815 5.35919 19.8247 5.36487 19.8692 5.36742C18.0377 3.6895 15.5976 2.66504 12.9176 2.66504C9.32118 2.66504 6.15711 4.51024 4.31641 7.30508C4.55793 7.31233 4.78554 7.31742 4.97888 7.31742C6.05564 7.31742 7.7224 7.18677 7.7224 7.18677C8.27733 7.15406 8.34275 7.96912 7.78841 8.03474C7.78841 8.03474 7.23073 8.10036 6.61018 8.13288L10.359 19.2834L12.6118 12.5269L11.0079 8.13249C10.4536 8.09997 9.92841 8.03435 9.92841 8.03435C9.37368 8.00183 9.43871 7.15367 9.99345 7.18638C9.99345 7.18638 11.6935 7.31703 12.705 7.31703C13.7816 7.31703 15.4486 7.18638 15.4486 7.18638C16.0039 7.15367 16.0691 7.96873 15.5146 8.03435C15.5146 8.03435 14.9557 8.09997 14.3363 8.13249L18.0565 19.1986L19.0833 15.7674C19.5284 14.3435 19.8671 13.3208 19.8671 12.4395V12.4395Z" fill="#21759B"/>
<path d="M13.0974 13.8594L10.0088 22.8345C10.931 23.1056 11.9063 23.2539 12.9168 23.2539C14.1156 23.2539 15.2653 23.0466 16.3354 22.6703C16.3078 22.6263 16.2827 22.5794 16.2621 22.5285L13.0974 13.8594Z" fill="#21759B"/>
<path d="M21.9497 8.02002C21.994 8.34793 22.019 8.69992 22.019 9.07856C22.019 10.1232 21.8239 11.2975 21.2363 12.7658L18.0918 21.8573C21.1523 20.0726 23.2108 16.7569 23.2108 12.9592C23.211 11.1694 22.7538 9.48639 21.9497 8.02002V8.02002Z" fill="#21759B"/>
<path d="M12.9171 0.959229C6.30041 0.959229 0.916992 6.34225 0.916992 12.9589C0.916992 19.5764 6.30041 24.9592 12.9171 24.9592C19.5336 24.9592 24.9178 19.5764 24.9178 12.9589C24.9176 6.34225 19.5336 0.959229 12.9171 0.959229ZM12.9171 24.4092C6.60383 24.4092 1.46722 19.2726 1.46722 12.9589C1.46722 6.64567 6.60363 1.50946 12.9171 1.50946C19.2302 1.50946 24.3664 6.64567 24.3664 12.9589C24.3664 19.2726 19.2302 24.4092 12.9171 24.4092Z" fill="#21759B"/>
</g>
<path d="M38.372 18.9592L40.724 10.7672L43.076 18.9592H44.98L48.34 7.43923H46.316L44.028 15.7592L41.732 7.43923L39.708 7.45523L37.42 15.7592L35.124 7.43923H33.1L36.468 18.9592H38.372ZM52.3483 19.1992C54.9323 19.1992 56.6603 17.3352 56.6603 14.6392C56.6603 11.9672 54.9563 10.0792 52.3483 10.0792C49.7963 10.0792 48.0523 11.9272 48.0523 14.6392C48.0523 17.3112 49.7483 19.1992 52.3483 19.1992ZM52.3483 17.3912C50.8603 17.3912 50.0923 16.3192 50.0923 14.6392C50.0923 13.0072 50.7963 11.8872 52.3483 11.8872C53.8603 11.8872 54.6203 12.9672 54.6203 14.6392C54.6203 16.2632 53.8763 17.3912 52.3483 17.3912ZM60.8309 10.7752C60.4709 10.9992 60.1829 11.3272 59.9669 11.7032V10.3192H58.2629V18.9592H60.1989V14.5672C60.1989 13.5672 60.5509 12.7592 61.3429 12.3272C61.8789 12.0152 62.6069 11.9752 63.1269 12.1192V10.3192C62.3509 10.1992 61.4709 10.3352 60.8309 10.7752ZM70.0253 10.7432C69.4493 10.3192 68.7373 10.0792 67.8733 10.0792C65.4253 10.0792 63.8573 12.0152 63.8573 14.6392C63.8573 17.2312 65.4093 19.1992 67.8013 19.1992C68.8253 19.1992 69.6493 18.8792 70.2653 18.3192V18.9592H71.9693V7.43923H70.0253V10.7432ZM68.0973 17.4712C66.5933 17.4712 65.8973 16.2232 65.8973 14.6392C65.8973 13.0712 66.6093 11.8072 68.1613 11.8072C69.6333 11.8072 70.2653 12.9512 70.2653 14.6392C70.2653 16.3112 69.6493 17.4712 68.0973 17.4712ZM75.9803 18.9592V14.9352H78.8123C79.0203 14.9352 79.4363 14.9192 79.7323 14.8712C81.7163 14.5672 82.6683 13.0872 82.6683 11.1912C82.6683 9.28723 81.7323 7.81523 79.7323 7.50323C79.4363 7.45523 79.0363 7.43923 78.8123 7.43923H74.0523V18.9592H75.9803ZM75.9803 9.24723H78.7323C78.9483 9.24723 79.2363 9.26323 79.4603 9.31923C80.4203 9.56723 80.7243 10.4552 80.7243 11.1912C80.7243 11.9272 80.4203 12.8152 79.4603 13.0552C79.2363 13.1192 78.9483 13.1352 78.7323 13.1352H75.9803V9.24723ZM86.679 10.7752C86.319 10.9992 86.031 11.3272 85.815 11.7032V10.3192H84.111V18.9592H86.047V14.5672C86.047 13.5672 86.399 12.7592 87.191 12.3272C87.727 12.0152 88.455 11.9752 88.975 12.1192V10.3192C88.199 10.1992 87.319 10.3352 86.679 10.7752ZM98.0254 15.1752C98.2494 12.0632 96.6814 10.0792 94.0014 10.0792C91.4574 10.0792 89.7054 11.9032 89.7054 14.7352C89.7054 17.3592 91.4894 19.1992 94.1134 19.1992C95.7774 19.1992 97.2654 18.3032 97.9294 16.7352L96.0254 16.1592C95.6494 16.9592 94.9454 17.3912 94.0014 17.3912C92.6894 17.3912 91.9214 16.5992 91.7694 15.1752H98.0254ZM94.0814 11.7672C95.2734 11.7672 95.9054 12.3672 96.0654 13.7192H91.8174C92.0414 12.4392 92.7854 11.7672 94.0814 11.7672ZM102.986 19.1992C105.21 19.1992 106.554 18.1432 106.554 16.4072C106.554 15.0632 105.802 14.3832 103.73 13.8472C101.706 13.3352 101.37 13.1432 101.37 12.6392C101.37 12.0632 101.978 11.7112 102.882 11.7512C103.818 11.8072 104.418 12.2472 104.522 12.9832L106.49 12.6312C106.274 11.0792 104.866 10.0792 102.85 10.0792C100.794 10.0792 99.4504 11.1192 99.4504 12.7352C99.4504 14.0312 100.21 14.6792 102.378 15.2472C104.33 15.7672 104.578 15.9112 104.578 16.4952C104.578 17.1352 104.042 17.5272 103.122 17.5272C102.066 17.5272 101.33 17.0072 101.138 16.1512L99.1704 16.4552C99.4584 18.1992 100.85 19.1992 102.986 19.1992ZM111.483 19.1992C113.707 19.1992 115.051 18.1432 115.051 16.4072C115.051 15.0632 114.299 14.3832 112.227 13.8472C110.203 13.3352 109.867 13.1432 109.867 12.6392C109.867 12.0632 110.475 11.7112 111.379 11.7512C112.315 11.8072 112.915 12.2472 113.019 12.9832L114.987 12.6312C114.771 11.0792 113.363 10.0792 111.347 10.0792C109.291 10.0792 107.947 11.1192 107.947 12.7352C107.947 14.0312 108.707 14.6792 110.875 15.2472C112.827 15.7672 113.075 15.9112 113.075 16.4952C113.075 17.1352 112.539 17.5272 111.619 17.5272C110.563 17.5272 109.827 17.0072 109.635 16.1512L107.667 16.4552C107.955 18.1992 109.347 19.1992 111.483 19.1992Z" fill="white"/>
<defs>
<clipPath id="clip0_111_1045">
<rect width="23.9994" height="24" fill="white" transform="translate(0.916992 0.959229)"/>
</clipPath>
</defs>
</svg>
