<svg width="53" height="18" viewBox="0 0 53 18" fill="none" xmlns="http://www.w3.org/2000/svg">
<g clip-path="url(#clip0_96_15945)">
<path fill-rule="evenodd" clip-rule="evenodd" d="M9.28377 0.787434C9.42181 0.958802 9.49219 1.19001 9.63296 1.65245L12.7082 11.7548C11.5531 11.1554 10.3133 10.7356 9.03158 10.5101L7.02925 3.74359C7.01329 3.68961 6.98028 3.64225 6.93516 3.60859C6.89004 3.57493 6.83523 3.55679 6.77894 3.55687C6.72265 3.55696 6.6679 3.57527 6.62288 3.60907C6.57787 3.64287 6.54501 3.69034 6.52922 3.74437L4.55114 10.5067C3.26363 10.7312 2.0181 11.1516 0.85791 11.7533L3.9483 1.6501C4.08951 1.18845 4.16012 0.957628 4.29814 0.786601C4.42001 0.635609 4.57851 0.51834 4.75854 0.445967C4.96248 0.364014 5.20385 0.364014 5.68662 0.364014H7.89393C8.37732 0.364014 8.61901 0.364014 8.82314 0.446157C9.00333 0.518666 9.16193 0.636167 9.28377 0.787434Z" fill="white"/>
<path fill-rule="evenodd" clip-rule="evenodd" d="M9.65206 12.2357C9.1451 12.6692 8.13321 12.9649 6.96763 12.9649C5.53706 12.9649 4.33799 12.5195 4.01982 11.9205C3.90607 12.2638 3.88057 12.6567 3.88057 12.9077C3.88057 12.9077 3.80564 14.14 4.66278 14.9972C4.66278 14.5521 5.02358 14.1913 5.46864 14.1913C6.2315 14.1913 6.23065 14.8569 6.22995 15.3968L6.22991 15.445C6.22991 16.2646 6.73082 16.9672 7.4432 17.2633C7.3368 17.0445 7.27711 16.7987 7.27711 16.539C7.27711 15.7574 7.736 15.4663 8.26934 15.128C8.69369 14.8589 9.16519 14.5599 9.49012 13.9601C9.65967 13.6471 9.75594 13.2886 9.75594 12.9077C9.75594 12.6734 9.71953 12.4476 9.65206 12.2357V12.2357Z" fill="#FF5D01"/>
<path d="M19.7693 11.5969C21.0556 11.5969 22.0204 11.1392 22.4161 10.3601C22.4161 10.7311 22.4408 11.1145 22.5027 11.4114H24.6176C24.5187 10.9784 24.4691 10.3847 24.4691 9.60556V7.70082C24.4691 5.89504 23.4055 5.04163 21.0431 5.04163C18.9777 5.04163 17.5924 5.89504 17.4316 7.29268H19.6332C19.7074 6.68663 20.2145 6.35268 21.0431 6.35268C21.8594 6.35268 22.3171 6.68663 22.3171 7.37928V7.56477L20.0785 7.76267C18.99 7.87401 18.3716 8.0595 17.9387 8.35636C17.4811 8.66554 17.2461 9.13558 17.2461 9.71687C17.2461 10.8795 18.2108 11.5969 19.7693 11.5969ZM20.5856 10.3106C19.8682 10.3106 19.4353 10.0261 19.4353 9.56847C19.4353 9.09848 19.7939 8.85109 20.697 8.73978L22.3542 8.56664V8.93768C22.3542 9.76636 21.6369 10.3106 20.5856 10.3106V10.3106ZM29.0785 11.5969C31.2305 11.5969 32.3314 10.7929 32.3314 9.49426C32.3314 8.4182 31.713 7.82451 30.2165 7.62661L28.3487 7.41637C27.817 7.34212 27.5943 7.20607 27.5943 6.90924C27.5943 6.55058 27.9529 6.38977 28.7692 6.38977C29.8948 6.38977 30.674 6.64952 31.3049 7.15663L32.3066 6.15478C31.6139 5.43742 30.4144 5.04163 28.93 5.04163C26.8399 5.04163 25.6772 5.78372 25.6772 7.03292C25.6772 8.12135 26.3945 8.7274 27.8787 8.92528L29.5609 9.12318C30.2288 9.20977 30.4267 9.33347 30.4267 9.65502C30.4267 10.0261 30.0555 10.224 29.1898 10.224C27.9035 10.224 27.0378 9.87767 26.4564 9.23452L25.3184 10.1745C26.073 11.1145 27.3593 11.5969 29.0785 11.5969V11.5969ZM34.0777 6.62478V9.23452C34.0777 10.7682 34.9434 11.5474 36.7987 11.5474C37.3677 11.5474 37.8129 11.4856 38.2335 11.3619V9.75396C38.0108 9.80346 37.7387 9.85292 37.38 9.85292C36.6008 9.85292 36.2174 9.50662 36.2174 8.77688V6.62478H38.2458V5.22714H36.2174V2.96375L34.0777 3.75531V5.22714H32.6923V6.62478H34.0777V6.62478ZM41.3177 5.22714H39.3636V11.4114H41.5033V9.09848C41.5033 8.43055 41.6517 7.82451 42.06 7.44108C42.3815 7.14423 42.8392 6.98348 43.4822 6.98348C43.7172 6.98348 43.9028 7.00818 44.113 7.03292V5.09109C43.977 5.06636 43.878 5.06636 43.7049 5.06636C42.4804 5.06636 41.6517 5.77135 41.3177 6.92164V5.22714V5.22714ZM48.3413 11.5969C50.6049 11.5969 52.2004 10.3971 52.2004 8.3069C52.2004 6.22899 50.6049 5.04163 48.3413 5.04163C46.0656 5.04163 44.4701 6.22899 44.4701 8.3069C44.4701 10.3971 46.0656 11.5969 48.3413 11.5969ZM48.3413 10.1745C47.3025 10.1745 46.647 9.50662 46.647 8.3069C46.647 7.10713 47.3025 6.46398 48.3413 6.46398C49.368 6.46398 50.0236 7.10713 50.0236 8.3069C50.0236 9.50662 49.368 10.1745 48.3413 10.1745Z" fill="white"/>
</g>
<defs>
<clipPath id="clip0_96_15945">
<rect width="51.3535" height="16.9285" fill="white" transform="translate(0.849121 0.352295)"/>
</clipPath>
</defs>
</svg>
