<svg width="82" height="18" viewBox="0 0 82 18" fill="none" xmlns="http://www.w3.org/2000/svg">
<g clip-path="url(#clip0_96_15966)">
<path d="M5.05017 12.1637C4.61806 11.7277 4.27623 11.2106 4.04424 10.6422C3.81226 10.0739 3.69468 9.46531 3.69825 8.85142C3.69668 8.23755 3.81751 7.62953 4.05368 7.06291C4.28984 6.49628 4.63661 5.98243 5.07369 5.55139C5.26092 5.38497 5.41221 5.18209 5.5183 4.95516C5.6244 4.72823 5.68305 4.48204 5.69069 4.23166C5.69832 3.98127 5.65476 3.73197 5.56269 3.499C5.47062 3.26603 5.33196 3.05431 5.15521 2.8768C4.97847 2.69928 4.76735 2.55971 4.53478 2.46663C4.30222 2.37355 4.0531 2.32892 3.80269 2.33547C3.55227 2.34202 3.30583 2.39961 3.07844 2.50472C2.85106 2.60982 2.64752 2.76024 2.4803 2.94675C0.909544 4.50823 0.0233521 6.62969 0.01664 8.84452C0.00992779 11.0593 0.883245 13.1861 2.4445 14.7571C2.61119 14.9434 2.81405 15.0937 3.04074 15.199C3.26742 15.3043 3.51318 15.3623 3.76302 15.3695C4.01286 15.3768 4.26155 15.333 4.49393 15.241C4.72632 15.1489 4.93752 15.0106 5.11468 14.8342C5.29183 14.6579 5.43122 14.4474 5.52435 14.2154C5.61748 13.9835 5.66239 13.735 5.65635 13.4851C5.65032 13.2352 5.59346 12.9892 5.48924 12.762C5.38502 12.5349 5.23563 12.3313 5.05017 12.1637V12.1637Z" fill="#FFDA00"/>
<path d="M5.07361 5.55132C5.95448 4.67929 7.14515 4.19209 8.38464 4.1965C9.62413 4.20091 10.8113 4.69657 11.6859 5.57484C11.852 5.76305 12.0549 5.9153 12.282 6.02223C12.5091 6.12916 12.7557 6.18851 13.0066 6.19663C13.2575 6.20475 13.5074 6.16147 13.7409 6.06945C13.9745 5.97742 14.1867 5.8386 14.3646 5.66152C14.5425 5.48444 14.6824 5.27285 14.7755 5.03974C14.8686 4.80663 14.9131 4.55693 14.9061 4.30601C14.8992 4.05508 14.841 3.80823 14.7352 3.58061C14.6293 3.353 14.478 3.14945 14.2906 2.98247C13.5204 2.20233 12.6036 1.58203 11.593 1.1572C10.5824 0.732366 9.4978 0.511371 8.40153 0.506905C7.30525 0.502439 6.21889 0.714589 5.20484 1.13117C4.19079 1.54776 3.26903 2.16056 2.49249 2.9344C2.30458 3.09997 2.15244 3.30214 2.04536 3.52854C1.93829 3.75494 1.87854 4.0008 1.86978 4.25109C1.86102 4.50138 1.90342 4.75083 1.99439 4.98416C2.08536 5.2175 2.22299 5.42981 2.39886 5.60812C2.57473 5.78642 2.78513 5.92696 3.01719 6.02114C3.24925 6.11532 3.49808 6.16115 3.74847 6.15584C3.99886 6.15052 4.24552 6.09416 4.47338 5.99022C4.70123 5.88627 4.90547 5.73693 5.07361 5.55132V5.55132Z" fill="#67B3FF"/>
<path d="M11.6756 12.1873C11.2397 12.6202 10.7227 12.963 10.1541 13.1958C9.58557 13.4287 8.97667 13.5471 8.36229 13.5443C7.74806 13.5452 7.13982 13.4236 6.57317 13.1865C6.00653 12.9495 5.49287 12.6018 5.06225 12.1637C4.89583 11.9765 4.69295 11.8252 4.46602 11.7191C4.2391 11.613 3.99291 11.5544 3.74252 11.5468C3.49214 11.5391 3.24283 11.5827 3.00986 11.6747C2.7769 11.7668 2.56518 11.9055 2.38766 12.0822C2.21015 12.259 2.07058 12.4701 1.9775 12.7027C1.88442 12.9352 1.83978 13.1843 1.84633 13.4348C1.85288 13.6852 1.91047 13.9316 2.01558 14.159C2.12069 14.3864 2.2711 14.5899 2.45761 14.7571C3.22914 15.5372 4.14704 16.1574 5.15869 16.5821C6.17035 17.0067 7.25587 17.2276 8.35303 17.232C9.4502 17.2363 10.5374 17.0241 11.5524 16.6075C12.5675 16.1909 13.4903 15.5781 14.268 14.8042C14.4398 14.634 14.5764 14.4316 14.67 14.2086C14.7637 13.9855 14.8124 13.7463 14.8136 13.5044C14.8147 13.2625 14.7682 13.0228 14.6767 12.7989C14.5852 12.575 14.4505 12.3714 14.2803 12.1995C14.11 12.0277 13.9076 11.8911 13.6846 11.7975C13.4616 11.7039 13.2223 11.6551 12.9805 11.654C12.7386 11.6528 12.4989 11.6993 12.275 11.7908C12.0511 11.8823 11.8474 12.0171 11.6756 12.1873V12.1873Z" fill="#EB5A68"/>
<path d="M5.0737 5.55143C4.8157 5.80912 4.48697 5.98438 4.12922 6.05498C3.77147 6.12557 3.40081 6.08832 3.06426 5.94794C2.72771 5.80757 2.44044 5.5704 2.23888 5.26651C2.03732 4.96263 1.93056 4.60573 1.93215 4.24108C1.93373 3.87643 2.04358 3.52047 2.24776 3.21835C2.45195 2.91622 2.74127 2.68155 3.07902 2.5441C3.41678 2.40665 3.78775 2.37261 4.14487 2.44631C4.502 2.52 4.82919 2.69811 5.08495 2.95803C5.42567 3.30431 5.61569 3.77125 5.61359 4.25705C5.61148 4.74285 5.41741 5.20811 5.0737 5.55143Z" fill="#47A1FF"/>
<path d="M5.03803 14.7571C4.77992 15.0147 4.45113 15.1899 4.09335 15.2603C3.73557 15.3308 3.36493 15.2934 3.02843 15.1529C2.69194 15.0124 2.40476 14.7751 2.20332 14.4711C2.00189 14.1671 1.89527 13.8102 1.89699 13.4456C1.89872 13.0809 2.00871 12.725 2.21301 12.4229C2.41732 12.1209 2.70673 11.8863 3.04454 11.749C3.38235 11.6117 3.75333 11.5778 4.11043 11.6517C4.46752 11.7255 4.79465 11.9037 5.0503 12.1637C5.39089 12.5102 5.58073 12.9772 5.57843 13.463C5.57613 13.9488 5.38188 14.414 5.03803 14.7571V14.7571Z" fill="#D5465F"/>
<path fill-rule="evenodd" clip-rule="evenodd" d="M22.4819 10.6553C23.0127 10.2544 23.0833 10.4783 23.5312 10.9263C23.7551 11.1502 24.3677 11.5398 23.9668 11.8691C23.1303 12.5522 22.3756 12.859 21.308 12.859C18.8915 12.8478 17.1827 11.0439 17.3197 8.65091C17.378 7.57919 17.8024 6.56474 18.6399 5.86935C19.4059 5.221 20.36 4.93875 21.3622 4.96227C21.8534 4.96081 22.34 5.05675 22.7938 5.24452C23.1013 5.35552 23.391 5.51053 23.6539 5.7047C24.1846 6.11376 23.9371 6.35305 23.524 6.76517C23.4299 6.85926 23.3358 6.95436 23.253 7.04844C23.0413 7.26013 22.8992 7.41352 22.6169 7.21309C22.0749 6.83573 21.3898 6.6353 20.7424 6.80403C18.6563 7.33376 18.7504 11.0469 21.309 11.0592C21.7331 11.0536 22.1443 10.912 22.4819 10.6553V10.6553ZM80.4723 12.9051C80.3886 12.9055 80.3057 12.8893 80.2283 12.8575C80.1509 12.8257 80.0805 12.7789 80.0213 12.7197C79.962 12.6606 79.9151 12.5903 79.8832 12.513C79.8512 12.4356 79.8349 12.3527 79.8352 12.269L79.871 4.0419C79.8706 3.95821 79.8868 3.87527 79.9186 3.79785C79.9504 3.72044 79.9972 3.65009 80.0563 3.59087C80.1155 3.53164 80.1858 3.4847 80.2631 3.45277C80.3405 3.42084 80.4234 3.40453 80.5071 3.4048H81.1912C81.275 3.40453 81.358 3.42087 81.4354 3.45287C81.5129 3.48486 81.5832 3.53189 81.6423 3.59123C81.7015 3.65056 81.7483 3.72103 81.78 3.79856C81.8118 3.87609 81.8278 3.95915 81.8273 4.04293L81.7915 12.27C81.7919 12.3536 81.7757 12.4365 81.7439 12.5139C81.7121 12.5913 81.6653 12.6615 81.6061 12.7207C81.547 12.7798 81.4767 12.8267 81.3993 12.8585C81.322 12.8903 81.2391 12.9065 81.1554 12.9061L80.4723 12.9051ZM76.8931 11.9509C76.1507 12.6463 75.443 13.0114 74.3938 13.0114C72.2729 12.9991 71.2584 11.2433 71.2584 9.27471L71.2707 5.92764C71.2704 5.84399 71.2867 5.76112 71.3187 5.68382C71.3506 5.60651 71.3976 5.53631 71.4568 5.47726C71.516 5.4182 71.5864 5.37148 71.6638 5.33978C71.7412 5.30808 71.8241 5.29204 71.9078 5.29258H72.5919C72.6756 5.29218 72.7585 5.30835 72.8358 5.34017C72.9132 5.372 72.9834 5.41883 73.0426 5.47798C73.1017 5.53713 73.1486 5.60741 73.1804 5.68476C73.2122 5.76212 73.2284 5.84502 73.228 5.92866L73.2167 9.27573C73.2167 10.372 73.8058 11.232 74.9614 11.232C76.1169 11.232 76.8236 10.2656 76.8348 9.18677V7.99131C76.8255 7.94488 76.8217 7.89751 76.8236 7.85019L76.8348 5.95218C76.8344 5.86854 76.8506 5.78564 76.8824 5.70828C76.9142 5.63093 76.9611 5.56065 77.0202 5.5015C77.0794 5.44235 77.1496 5.39552 77.227 5.36369C77.3044 5.33187 77.3872 5.3157 77.4709 5.3161H78.1458C78.2295 5.3157 78.3124 5.33187 78.3897 5.36369C78.4671 5.39552 78.5374 5.44235 78.5965 5.5015C78.6557 5.56065 78.7025 5.63093 78.7343 5.70828C78.7661 5.78564 78.7823 5.86854 78.7819 5.95218L78.7594 12.27C78.7578 12.4372 78.6899 12.5969 78.5706 12.714C78.4514 12.8312 78.2905 12.8962 78.1233 12.8948H77.5455C77.3815 12.8897 77.2255 12.8222 77.1094 12.7061C76.9933 12.5901 76.9258 12.4341 76.9207 12.27L76.8931 11.9509ZM68.756 5.3161H70.0762C70.1599 5.3173 70.2426 5.33505 70.3194 5.36835C70.3962 5.40165 70.4656 5.44982 70.5237 5.5101C70.5818 5.57038 70.6274 5.64156 70.6578 5.71954C70.6883 5.79752 70.703 5.88076 70.7011 5.96445V6.40009C70.6997 6.56803 70.6326 6.72874 70.514 6.84768C70.3955 6.96662 70.235 7.0343 70.067 7.03617H68.7438L68.7202 12.2342C68.7206 12.3179 68.7045 12.4008 68.6727 12.4783C68.6409 12.5557 68.594 12.626 68.5349 12.6852C68.4758 12.7445 68.4055 12.7914 68.3281 12.8233C68.2508 12.8553 68.1678 12.8716 68.0842 12.8713H67.401C67.3173 12.8716 67.2343 12.8553 67.1569 12.8234C67.0795 12.7914 67.0092 12.7445 66.9499 12.6853C66.8907 12.6261 66.8438 12.5558 66.8119 12.4783C66.78 12.4009 66.7637 12.3179 66.7639 12.2342L66.7875 5.04511C66.7875 3.47741 67.6833 2.239 69.2868 2.09788C69.3338 2.09788 69.3686 2.08663 69.4156 2.08663C69.5099 2.0805 69.6046 2.0805 69.6989 2.08663H70.3125C70.3961 2.08783 70.4786 2.10555 70.5554 2.13878C70.6321 2.17202 70.7015 2.2201 70.7596 2.28027C70.8177 2.34044 70.8633 2.4115 70.8938 2.48936C70.9243 2.56723 70.9391 2.65035 70.9373 2.73396V3.13483C70.9362 3.30329 70.8689 3.46457 70.7499 3.58379C70.6308 3.703 70.4697 3.77059 70.3012 3.77193H69.8063C69.0516 3.77193 68.7335 4.34869 68.7213 5.05636L68.756 5.3161ZM64.0182 5.29258H65.4652C65.6324 5.2942 65.7921 5.3621 65.9092 5.48136C66.0264 5.60062 66.0914 5.76149 66.09 5.92866V6.3643C66.0884 6.53147 66.0205 6.69116 65.9012 6.80831C65.782 6.92546 65.6211 6.99049 65.4539 6.98913H64.0059L63.9947 10.1695C63.9947 10.7831 64.2892 11.1359 64.9017 11.1359H65.1962C65.3635 11.1378 65.5232 11.2059 65.6403 11.3253C65.7574 11.4448 65.8224 11.6057 65.8211 11.773V12.2148C65.8192 12.3819 65.7512 12.5414 65.632 12.6585C65.5128 12.7756 65.3521 12.8407 65.185 12.8396H64.6307C64.5283 12.8416 64.4259 12.8375 64.3239 12.8273C62.7562 12.7251 62.0609 11.7086 62.0609 10.1757C62.0731 8.113 62.0731 6.06263 62.0844 3.99998C62.0852 3.91712 62.1023 3.83523 62.1347 3.75898C62.1672 3.68273 62.2143 3.61363 62.2735 3.55561C62.3327 3.49758 62.4027 3.45178 62.4795 3.42082C62.5564 3.38986 62.6386 3.37434 62.7215 3.37515H63.3933C63.5605 3.37677 63.7202 3.44466 63.8373 3.56392C63.9545 3.68318 64.0195 3.84406 64.0182 4.01123V5.29258ZM43.0542 5.20975H44.5012C44.6684 5.21137 44.8281 5.27926 44.9453 5.39852C45.0624 5.51778 45.1274 5.67866 45.1261 5.84583V6.28351C45.1242 6.45059 45.0562 6.61013 44.937 6.72722C44.8178 6.84431 44.6571 6.90943 44.49 6.90834H43.0379V10.0897C43.0379 10.7033 43.3324 11.0561 43.9449 11.0561H44.2405C44.3232 11.0569 44.405 11.074 44.4811 11.1064C44.5572 11.1388 44.6262 11.1859 44.6841 11.245C44.7421 11.304 44.7878 11.3739 44.8187 11.4507C44.8496 11.5274 44.8651 11.6095 44.8643 11.6922V12.1279C44.8627 12.295 44.7948 12.4547 44.6755 12.5719C44.5562 12.689 44.3954 12.754 44.2282 12.7527H43.7926C42.0827 12.7414 41.0928 12.0103 41.0928 10.0938C41.1051 8.03119 41.1051 5.97979 41.1163 3.91714C41.1182 3.74988 41.1863 3.5902 41.3058 3.47307C41.4252 3.35595 41.5862 3.29095 41.7534 3.29232H42.4253C42.5925 3.2942 42.7521 3.36236 42.869 3.48181C42.986 3.60126 43.0507 3.76225 43.0491 3.92942L43.0542 5.20975ZM34.5449 6.10558C35.2403 5.45723 35.995 5.04511 36.9726 5.04511C39.0946 5.05636 40.1909 6.78358 40.1786 8.78078L40.1673 12.1279C40.1676 12.2116 40.1513 12.2946 40.1194 12.372C40.0875 12.4494 40.0406 12.5197 39.9813 12.579C39.9221 12.6382 39.8518 12.6851 39.7744 12.717C39.6969 12.7489 39.614 12.7652 39.5302 12.765H38.8471C38.7634 12.7652 38.6804 12.7489 38.603 12.717C38.5256 12.6851 38.4552 12.6382 38.396 12.579C38.3368 12.5197 38.2899 12.4494 38.258 12.372C38.226 12.2946 38.2098 12.2116 38.21 12.1279L38.2223 8.8043C38.2223 7.70804 37.6333 6.84801 36.4777 6.84801C35.3221 6.84801 34.6155 7.80314 34.6042 8.88713L34.592 12.1279C34.5903 12.295 34.5224 12.4547 34.4032 12.5719C34.2839 12.689 34.123 12.754 33.9559 12.7527H33.284C33.1168 12.7511 32.9571 12.6832 32.84 12.5639C32.7228 12.4447 32.6578 12.2838 32.6592 12.1166C32.6704 10.101 32.6704 8.07414 32.6827 6.05853V5.78754C32.6832 5.62055 32.75 5.46059 32.8682 5.3427C32.9865 5.22481 33.1467 5.15862 33.3137 5.15862H33.8914C34.0556 5.1635 34.2117 5.2309 34.3279 5.34703C34.444 5.46317 34.5114 5.61928 34.5163 5.78345L34.5449 6.10558ZM55.5487 6.18739C56.2441 5.54006 56.9978 5.12692 57.9765 5.12692C60.0984 5.13919 61.1937 6.87153 61.1824 8.86361L61.1701 12.2148C61.1705 12.2985 61.1544 12.3814 61.1226 12.4588C61.0908 12.5362 61.0439 12.6066 60.9848 12.6658C60.9257 12.725 60.8554 12.772 60.778 12.8039C60.7007 12.8358 60.6178 12.8521 60.5341 12.8519H59.8509C59.7672 12.8521 59.6842 12.8359 59.6068 12.8039C59.5294 12.772 59.4591 12.7251 59.3998 12.6659C59.3406 12.6067 59.2937 12.5363 59.2618 12.4589C59.2299 12.3815 59.2136 12.2985 59.2138 12.2148L59.2261 8.89122C59.2261 7.79496 58.6361 6.93493 57.4815 6.93493C56.327 6.93493 55.6193 7.88905 55.607 8.97406L55.5907 12.2148C55.5888 12.382 55.5207 12.5417 55.4012 12.6588C55.2818 12.776 55.1208 12.841 54.9536 12.8396H54.2817C54.1147 12.8377 53.9553 12.7697 53.8384 12.6505C53.7214 12.5312 53.6565 12.3705 53.6579 12.2035L53.6814 5.87344C53.6817 5.79023 53.6984 5.7079 53.7306 5.63118C53.7628 5.55446 53.8099 5.48488 53.8691 5.42642C53.9283 5.36797 53.9985 5.3218 54.0756 5.29058C54.1528 5.25937 54.2353 5.24371 54.3185 5.24452H54.8963C55.0611 5.24996 55.2175 5.31826 55.3335 5.4354C55.4495 5.55255 55.5163 5.70965 55.5201 5.87446L55.5487 6.18739ZM28.1279 4.98579C25.829 4.97352 24.203 6.6353 24.1908 8.9219C24.1795 11.232 25.782 12.8713 28.1044 12.8826C30.4268 12.8938 32.0528 11.2678 32.064 8.94236C32.0763 6.67109 30.4145 4.99704 28.1279 4.98579ZM47.2102 9.7124C47.3748 10.7729 48.3893 11.2085 49.3792 11.2208C49.8754 11.2164 50.3653 11.1081 50.817 10.9027C50.8897 10.8731 50.9604 10.839 51.0287 10.8005C51.2649 10.6706 51.4766 10.5888 51.6893 10.8005C51.8069 10.9181 51.9133 11.0367 52.0309 11.142C52.142 11.248 52.2445 11.3626 52.3377 11.4846C52.6557 11.8845 52.4318 11.9796 52.0667 12.2271C51.2885 12.7455 50.275 13.0043 49.3434 13.0043C46.8451 12.993 45.1946 11.4703 45.1946 8.95054C45.2069 6.56883 46.8564 4.98988 49.2371 5.00113C51.6658 5.0134 53.0443 6.43998 53.0801 8.8677C53.0914 9.5273 53.1149 9.74001 52.4318 9.74001L47.2102 9.7124ZM28.1279 6.76517C29.3182 6.76517 30.1077 7.80314 30.1077 8.94645C30.1077 10.1368 29.3653 11.094 28.1156 11.094C26.866 11.094 26.1358 10.1276 26.1358 8.93724C26.1358 7.7469 26.8905 6.76517 28.1279 6.76517V6.76517ZM47.2624 8.07414L51.176 8.08539C51.0338 7.10673 50.2208 6.71813 49.2902 6.71813C48.3596 6.71813 47.5518 7.1548 47.2624 8.07414Z" fill="#F0FEFF"/>
</g>
<defs>
<clipPath id="clip0_96_15966">
<rect width="81.8105" height="16.8796" fill="white" transform="translate(0.0166016 0.352295)"/>
</clipPath>
</defs>
</svg>
