<svg width="52" height="20" viewBox="0 0 52 20" fill="none" xmlns="http://www.w3.org/2000/svg">
<g clip-path="url(#clip0_96_16031)">
<path d="M7.13672 10.3523C7.13672 9.51556 7.46911 8.7131 8.06077 8.12144C8.65243 7.52978 9.45489 7.19739 10.2916 7.19739C11.1284 7.19739 11.9308 7.52978 12.5225 8.12144C13.1141 8.7131 13.4465 9.51556 13.4465 10.3523C13.4465 11.189 13.1141 11.9915 12.5225 12.5832C11.9308 13.1748 11.1284 13.5072 10.2916 13.5072C9.45489 13.5072 8.65243 13.1748 8.06077 12.5832C7.46911 11.9915 7.13672 11.189 7.13672 10.3523V10.3523Z" fill="#1ABCFE"/>
<path d="M0.827148 16.6621C0.827148 15.8254 1.15954 15.0229 1.7512 14.4313C2.34286 13.8396 3.14532 13.5072 3.98206 13.5072H7.13696V16.6621C7.13696 17.4988 6.80457 18.3013 6.21291 18.893C5.62125 19.4846 4.81879 19.817 3.98206 19.817C3.14532 19.817 2.34286 19.4846 1.7512 18.893C1.15954 18.3013 0.827148 17.4988 0.827148 16.6621H0.827148Z" fill="#0ACF83"/>
<path d="M7.13672 0.887573V7.19739H10.2916C11.1284 7.19739 11.9308 6.865 12.5225 6.27334C13.1141 5.68168 13.4465 4.87921 13.4465 4.04248C13.4465 3.20575 13.1141 2.40328 12.5225 1.81162C11.9308 1.21996 11.1284 0.887573 10.2916 0.887573L7.13672 0.887573Z" fill="#FF7262"/>
<path d="M0.827148 4.04248C0.827148 4.87921 1.15954 5.68168 1.7512 6.27334C2.34286 6.865 3.14532 7.19739 3.98206 7.19739H7.13696V0.887573H3.98206C3.14532 0.887573 2.34286 1.21996 1.7512 1.81162C1.15954 2.40328 0.827148 3.20575 0.827148 4.04248H0.827148Z" fill="#F24E1E"/>
<path d="M0.827148 10.3523C0.827148 11.189 1.15954 11.9915 1.7512 12.5832C2.34286 13.1748 3.14532 13.5072 3.98206 13.5072H7.13696V7.19739H3.98206C3.14532 7.19739 2.34286 7.52978 1.7512 8.12144C1.15954 8.7131 0.827148 9.51556 0.827148 10.3523H0.827148Z" fill="#A259FF"/>
</g>
<path d="M18.9188 14.8523V11.3483H21.8468V9.71629H18.9188V7.84429H22.5668V6.21229H17.2868V14.8523H18.9188ZM25.2821 7.47229V6.03229H23.6501V7.47229H25.2821ZM25.2821 14.8523V8.37229H23.6501V14.8523H25.2821ZM31.3408 8.73229C30.9028 8.39029 30.3448 8.19229 29.6728 8.19229C27.8128 8.19229 26.6008 9.63229 26.6008 11.6123C26.6008 13.5563 27.8008 15.0323 29.5888 15.0323C30.2008 15.0323 30.7168 14.8823 31.1368 14.6183V15.2723C31.1608 15.9923 30.4768 16.3643 29.7448 16.3643C29.2888 16.3643 28.8688 16.1603 28.6648 15.7763L27.1528 16.5083C27.6448 17.3483 28.6288 17.9123 29.7328 17.9123C31.1608 17.9123 32.3608 17.3603 32.6728 16.1723C32.7448 15.8963 32.7688 15.6203 32.7688 15.2963V8.37229H31.3408V8.73229ZM29.8528 13.5803C28.7968 13.5803 28.3288 12.7043 28.3288 11.6123C28.3288 10.5323 28.8208 9.64429 29.9128 9.64429C30.9328 9.64429 31.3408 10.4363 31.3408 11.6123C31.3408 12.7883 30.9448 13.5803 29.8528 13.5803ZM41.5171 8.21629C40.6831 8.21629 39.9571 8.60029 39.5371 9.22429C39.2011 8.61829 38.5831 8.21629 37.6531 8.21629C36.8731 8.21629 36.1891 8.54629 35.7571 9.08029V8.37229H34.3171V14.8523H35.9611V10.9283C35.9611 10.1843 36.4051 9.66829 37.0891 9.66829C37.7971 9.66829 38.2291 10.1723 38.2291 11.0243V14.8523H39.8611V10.9283C39.8611 10.1843 40.3051 9.66829 40.9891 9.66829C41.6971 9.66829 42.1291 10.1723 42.1291 11.0243V14.8523H43.7611V10.5923C43.7611 9.17629 42.9931 8.21629 41.5171 8.21629ZM50.3733 9.36829C49.9173 8.50429 48.9813 8.19229 47.8413 8.19229C46.2813 8.19229 45.3933 8.93629 45.0693 10.0043L46.5453 10.4723C46.7493 9.88429 47.3613 9.68029 47.8413 9.68029C48.6093 9.68029 48.9633 9.95629 49.0293 10.5623C47.8113 10.7423 46.8813 10.8803 46.2573 11.1083C45.2133 11.4923 44.8413 12.1643 44.8413 13.0643C44.8413 14.1443 45.6093 15.0323 47.0013 15.0323C47.9973 15.0323 48.6333 14.7443 49.2093 14.0603V14.8523H50.6373V10.8923C50.6373 10.3043 50.6253 9.84829 50.3733 9.36829ZM48.8493 12.8843C48.7173 13.1603 48.2493 13.7483 47.3493 13.7483C46.7853 13.7483 46.4373 13.4843 46.4373 13.0403C46.4373 12.7163 46.6293 12.4883 47.1093 12.2963C47.4813 12.1583 47.9253 12.0683 49.0173 11.8823C49.0113 12.1943 48.9873 12.6023 48.8493 12.8843Z" fill="white"/>
<defs>
<clipPath id="clip0_96_16031">
<rect width="12.6196" height="18.9294" fill="white" transform="translate(0.827148 0.887573)"/>
</clipPath>
</defs>
</svg>
