<svg width="70" height="19" viewBox="0 0 70 19" fill="none" xmlns="http://www.w3.org/2000/svg">
<g clip-path="url(#clip0_96_15950)">
<path d="M41.586 8.24746H43.4282V14.8267H41.586V13.9714C40.9281 14.9583 40.0728 15.0241 39.5464 15.0241C37.5068 15.0241 36.191 13.4451 36.191 11.5371C36.191 9.56331 37.5068 8.05008 39.4148 8.05008C39.9412 8.05008 40.9281 8.11588 41.5202 9.10276V8.24746H41.586ZM38.1648 11.5371C38.1648 12.5898 38.8885 13.3793 40.007 13.3793C41.0596 13.3793 41.8492 12.5898 41.8492 11.5371C41.8492 10.4844 41.1254 9.6949 40.007 9.6949C38.9543 9.6949 38.1648 10.4844 38.1648 11.5371ZM47.0468 9.82648V14.8267H45.2046V9.82648H44.4809V8.24746H45.2046V6.01051H47.0468V8.24746H48.2968V9.82648H47.0468ZM52.6391 9.82648C52.1786 9.43173 51.7838 9.36594 51.5865 9.36594C51.1259 9.36594 50.8627 9.56331 50.8627 9.89228C50.8627 10.0897 50.9285 10.287 51.4549 10.4844L51.9154 10.616C52.4418 10.8134 53.2313 11.0108 53.5602 11.5371C53.7576 11.8003 53.8892 12.195 53.8892 12.6556C53.8892 13.2477 53.6918 13.8398 53.1655 14.3004C52.6391 14.7609 51.9812 15.0241 51.1917 15.0241C49.8101 15.0241 49.0863 14.3662 48.6258 13.9056L49.6127 12.7872C50.0074 13.1819 50.5338 13.5767 51.0601 13.5767C51.5865 13.5767 51.9812 13.3135 51.9812 12.8529C51.9812 12.4582 51.6523 12.2608 51.3891 12.195L50.9943 12.0634C50.5338 11.8661 50.0074 11.6687 49.6127 11.2739C49.2837 10.945 49.0863 10.5502 49.0863 10.0239C49.0863 9.36594 49.4153 8.83959 49.7443 8.51063C50.2706 8.11587 50.9285 8.05008 51.4549 8.05008C51.9154 8.05008 52.7049 8.11588 53.5602 8.7738L52.6391 9.82648V9.82648ZM56.6525 9.10276C57.3104 8.18167 58.2315 8.05008 58.7579 8.05008C60.6659 8.05008 61.9817 9.56331 61.9817 11.5371C61.9817 13.5109 60.6659 15.0241 58.6921 15.0241C58.2973 15.0241 57.3104 14.9583 56.5867 13.9714V14.8267H54.8103V3.77356H56.6525V9.10276V9.10276ZM56.4551 11.5371C56.4551 12.5898 57.1788 13.3793 58.2973 13.3793C59.35 13.3793 60.1395 12.5898 60.1395 11.5371C60.1395 10.4844 59.4158 9.6949 58.2973 9.6949C57.1788 9.6949 56.4551 10.4844 56.4551 11.5371ZM65.0082 13.8398L61.8501 8.24746H64.0213L66.0608 11.9976L67.903 8.24746H70.0084L64.745 18.3137H62.6396L65.0082 13.8398ZM35.7304 9.36594H31.125V11.2081H33.5593C33.1645 12.4582 32.2434 13.3135 30.5328 13.3135C28.6248 13.3135 27.2432 11.7345 27.2432 9.82648C27.2432 7.9185 28.559 6.27368 30.467 6.27368C31.5197 6.27368 32.5724 6.80002 33.2303 7.65533L34.7435 6.66844C33.7567 5.28679 32.1776 4.49728 30.467 4.49728C27.5721 4.49728 25.2036 6.86581 25.2036 9.82648C25.2036 12.7872 27.4406 15.1557 30.467 15.1557C33.4935 15.1557 35.7304 12.7872 35.7304 9.82648C35.7962 9.62911 35.7304 9.49752 35.7304 9.36594V9.36594Z" fill="#EEF2FF"/>
<path d="M16.6507 9.56324H12.0452V10.8791H15.2032C14.7427 12.8529 13.2952 14.4977 11.3872 15.1556L3.82109 7.58946C4.6106 5.28672 6.84755 3.6419 9.41346 3.6419C11.3872 3.6419 13.1636 4.62879 14.2821 6.14202L15.269 5.28672C13.9532 3.51032 11.8478 2.32605 9.41346 2.32605C5.99224 2.32605 3.09737 4.76038 2.37365 7.98422L11.0583 16.6688C14.2163 15.8793 16.6507 12.9845 16.6507 9.56324ZM2.17627 9.62904C2.17627 11.4712 2.89999 13.2476 4.28163 14.6293C5.66328 16.0109 7.50547 16.7346 9.28188 16.7346L2.17627 9.62904Z" fill="white"/>
<path d="M9.41361 0.352295C4.34757 0.352295 0.202637 4.49723 0.202637 9.56327C0.202637 14.6293 4.34757 18.7742 9.41361 18.7742C14.4796 18.7742 18.6246 14.6293 18.6246 9.56327C18.6246 4.49723 14.4796 0.352295 9.41361 0.352295ZM4.28178 14.6951C2.90014 13.3134 2.17642 11.4713 2.17642 9.69485L9.34781 16.8005C7.50562 16.7347 5.66343 16.0767 4.28178 14.6951ZM10.9926 16.6031L2.37379 7.98424C3.09751 4.7604 5.99239 2.32607 9.41361 2.32607C11.8479 2.32607 13.9533 3.51034 15.2692 5.28674L14.2823 6.14205C13.1638 4.62882 11.3874 3.64193 9.41361 3.64193C6.84769 3.64193 4.67654 5.28674 3.82123 7.58949L11.3874 15.1556C13.2954 14.4977 14.7428 12.8529 15.2034 10.8791H12.0453V9.56327H16.6508C16.6508 12.9845 14.2165 15.8794 10.9926 16.6031Z" fill="#663399"/>
</g>
<defs>
<clipPath id="clip0_96_15950">
<rect width="69.7402" height="18.4219" fill="white" transform="translate(0.202637 0.352295)"/>
</clipPath>
</defs>
</svg>
