<svg width="79" height="17" viewBox="0 0 79 17" fill="none" xmlns="http://www.w3.org/2000/svg">
<g clip-path="url(#clip0_96_15935)">
<path d="M52.4326 0.358887H66.1582V2.89227H60.7134V16.2201H57.9908V2.89227H52.4326V0.358887Z" fill="#F0FEFF"/>
<path d="M29.8593 0.358887V2.89227H18.8573V6.96771H27.7051V9.50109H18.8573V13.6867H29.8593V16.2201H16.1349V2.89227H16.1338V0.358887H29.8593Z" fill="#F0FEFF"/>
<path d="M36.7127 0.365479H33.1499L45.9111 16.2267H49.4843L43.1029 8.30153L49.4741 0.37758L45.9111 0.383086L41.3191 6.08619L36.7127 0.365479Z" fill="#F0FEFF"/>
<path d="M40.3686 11.6953L38.5844 9.47693L33.1396 16.2389H36.7126L40.3686 11.6953Z" fill="#F0FEFF"/>
<path fill-rule="evenodd" clip-rule="evenodd" d="M16.2302 16.2201L3.45185 0.352295H0.0488281V16.2135H2.77125V3.74261L12.8102 16.2201H16.2302Z" fill="#F0FEFF"/>
<path d="M66.7703 16.1233C66.5709 16.1233 66.4013 16.0542 66.2593 15.9161C66.1173 15.7779 66.0471 15.6107 66.0489 15.4126C66.0471 15.2199 66.1173 15.0545 66.2593 14.9163C66.4013 14.7782 66.5709 14.7091 66.7703 14.7091C66.9621 14.7091 67.1299 14.7782 67.2719 14.9163C67.4159 15.0545 67.4877 15.2199 67.4897 15.4126C67.4877 15.5434 67.4545 15.6634 67.3881 15.7706C67.3199 15.8797 67.2333 15.9651 67.1243 16.0269C67.0173 16.0906 66.8993 16.1233 66.7703 16.1233Z" fill="#F0FEFF"/>
<path d="M71.4166 9.44141H72.623V14.0893C72.6212 14.5164 72.5288 14.8818 72.3482 15.189C72.1656 15.4962 71.9128 15.7306 71.5882 15.896C71.2654 16.0596 70.8872 16.1433 70.4574 16.1433C70.0644 16.1433 69.7122 16.0724 69.3986 15.9342C69.085 15.7961 68.836 15.5889 68.6534 15.3162C68.4688 15.0435 68.3784 14.7036 68.3784 14.2965H69.5868C69.5886 14.4746 69.6292 14.6291 69.7066 14.7582C69.784 14.8872 69.891 14.9854 70.0276 15.0544C70.1658 15.1235 70.3246 15.1581 70.5034 15.1581C70.6972 15.1581 70.8632 15.1181 70.9978 15.0363C71.1324 14.9563 71.2358 14.8363 71.3078 14.6764C71.3778 14.5182 71.4148 14.3219 71.4166 14.0893V9.44141Z" fill="#F0FEFF"/>
<path d="M77.5868 11.2591C77.5574 10.9773 77.4282 10.7574 77.2032 10.6011C76.9762 10.4429 76.683 10.3648 76.3232 10.3648C76.0706 10.3648 75.853 10.4029 75.6722 10.4775C75.4914 10.5538 75.3512 10.6556 75.2552 10.7846C75.1594 10.9137 75.1114 11.0609 75.1076 11.2264C75.1076 11.3645 75.1408 11.4845 75.2054 11.5844C75.27 11.6862 75.3566 11.7717 75.4692 11.8407C75.5798 11.9116 75.7034 11.9698 75.8382 12.017C75.9746 12.0643 76.1112 12.1043 76.2476 12.137L76.8766 12.2915C77.1294 12.3497 77.3748 12.4279 77.609 12.5278C77.8432 12.626 78.0554 12.7514 78.2416 12.9023C78.428 13.0531 78.5756 13.2349 78.6844 13.4476C78.7932 13.6602 78.8486 13.9093 78.8486 14.1965C78.8486 14.5836 78.749 14.9235 78.5478 15.218C78.3468 15.5106 78.0572 15.7397 77.6772 15.9051C77.299 16.0687 76.8416 16.1523 76.303 16.1523C75.7828 16.1523 75.329 16.0723 74.9472 15.9124C74.5636 15.7542 74.2646 15.5216 74.0488 15.2162C73.833 14.9108 73.7168 14.5382 73.7002 14.1001H74.8956C74.9122 14.3291 74.986 14.52 75.1114 14.6745C75.2386 14.8272 75.4046 14.9399 75.6076 15.0162C75.8124 15.0908 76.041 15.1289 76.2938 15.1289C76.5576 15.1289 76.79 15.0889 76.991 15.0108C77.1902 14.9326 77.347 14.8236 77.4596 14.6818C77.574 14.5418 77.6312 14.3764 77.633 14.1874C77.6312 14.0147 77.5794 13.8711 77.4798 13.7584C77.3784 13.6457 77.2382 13.5512 77.0592 13.4748C76.8786 13.3985 76.6682 13.3294 76.4284 13.2694L75.6648 13.0768C75.1132 12.9368 74.676 12.7241 74.3568 12.4388C74.036 12.1534 73.8772 11.7753 73.8772 11.3009C73.8772 10.9119 73.9842 10.5702 74.2002 10.2775C74.414 9.98487 74.7074 9.75765 75.0782 9.59587C75.4508 9.43229 75.8714 9.35229 76.3398 9.35229C76.8158 9.35229 77.2326 9.43229 77.5924 9.59587C77.952 9.75765 78.2344 9.98305 78.439 10.2702C78.6438 10.5574 78.7508 10.8864 78.7564 11.2591H77.5868Z" fill="#F0FEFF"/>
</g>
<defs>
<clipPath id="clip0_96_15935">
<rect width="78.8" height="16" fill="white" transform="translate(0.0488281 0.352295)"/>
</clipPath>
</defs>
</svg>
