<svg width="65" height="17" viewBox="0 0 65 17" fill="none" xmlns="http://www.w3.org/2000/svg">
<g clip-path="url(#clip0_96_15960)">
<path fill-rule="evenodd" clip-rule="evenodd" d="M14.6147 2.86267H5.46533V7.45012H9.96728C10.1277 7.45012 10.2578 7.58023 10.2578 7.74062V12.1804H14.9052V3.1537C14.9053 3.11551 14.8978 3.07768 14.8833 3.04237C14.8687 3.00706 14.8473 2.97498 14.8203 2.94794C14.7934 2.92091 14.7613 2.89947 14.726 2.88483C14.6907 2.8702 14.6529 2.86267 14.6147 2.86267V2.86267Z" fill="#8E75FF"/>
<path opacity="0.405" fill-rule="evenodd" clip-rule="evenodd" d="M5.46477 2.86267V7.45012H1.1726C1.14376 7.45007 1.11559 7.44145 1.09166 7.42536C1.06773 7.40926 1.04912 7.38642 1.03819 7.35973C1.02727 7.33305 1.02452 7.30371 1.03029 7.27546C1.03607 7.2472 1.05011 7.2213 1.07063 7.20104L5.46477 2.86267ZM10.5052 16.5236C10.4848 16.5437 10.4589 16.5573 10.4308 16.5627C10.4026 16.5681 10.3735 16.5651 10.3471 16.554C10.3207 16.5429 10.2981 16.5243 10.2822 16.5005C10.2663 16.4767 10.2578 16.4487 10.2577 16.42V12.1804H14.9052L10.5052 16.523V16.5236Z" fill="#8E75FF"/>
<path opacity="0.405" d="M5.46533 7.4502H10.1133C10.193 7.4502 10.2583 7.51499 10.2583 7.59518V12.1805H5.75636C5.67932 12.1805 5.60543 12.1499 5.55095 12.0954C5.49647 12.0409 5.46586 11.9671 5.46586 11.89V7.4502H5.46533Z" fill="#8E75FF"/>
<path fill-rule="evenodd" clip-rule="evenodd" d="M61.7701 2.57326C62.0298 2.8303 62.3362 2.95829 62.6899 2.95829C63.0548 2.95829 63.367 2.8303 63.6267 2.57326C63.8864 2.31622 64.016 2.0135 64.016 1.66352C64.016 1.31407 63.8864 1.00817 63.6267 0.745819C63.5061 0.61931 63.3606 0.519065 63.1994 0.451352C63.0382 0.383639 62.8647 0.349915 62.6899 0.35229C62.3362 0.35229 62.0298 0.483466 61.7701 0.745288C61.5104 1.00817 61.3808 1.31354 61.3808 1.66405C61.3808 2.0135 61.5104 2.31622 61.7701 2.57326V2.57326ZM33.5911 5.92542C33.5911 5.95197 33.5688 5.97428 33.5417 5.97428H31.7175V9.3838C31.7175 9.66792 31.7897 9.87558 31.9331 10.0068C32.0765 10.1379 32.2868 10.2112 32.5629 10.2277C32.8157 10.2431 33.1238 10.242 33.4875 10.225L33.5391 10.2224C33.5457 10.222 33.5523 10.223 33.5586 10.2253C33.5648 10.2276 33.5705 10.2311 33.5753 10.2357C33.5802 10.2403 33.584 10.2458 33.5866 10.2519C33.5892 10.258 33.5906 10.2646 33.5906 10.2712V12.0934C33.5906 12.1054 33.5862 12.1171 33.5782 12.1262C33.5701 12.1352 33.559 12.1409 33.547 12.1422L33.5136 12.1459C32.085 12.2962 31.0743 12.1566 30.4827 11.7274C29.8805 11.2904 29.5799 10.5092 29.5799 9.3838V5.97428H28.1863C28.1734 5.97428 28.1609 5.96913 28.1518 5.95997C28.1426 5.95081 28.1375 5.93838 28.1375 5.92542V3.9907C28.1375 3.96415 28.1592 3.94184 28.1863 3.94184H29.5793V2.58919C29.5793 2.54989 29.6027 2.51484 29.6383 2.49891L31.649 1.62422C31.6564 1.62084 31.6646 1.61939 31.6727 1.61999C31.6809 1.6206 31.6888 1.62324 31.6957 1.62768C31.7025 1.63212 31.7082 1.63821 31.7121 1.6454C31.716 1.6526 31.718 1.66065 31.718 1.66883V3.94184H33.5417C33.5683 3.94184 33.5906 3.96362 33.5906 3.9907V5.92542H33.5911ZM37.468 5.35186C37.6666 4.82715 37.9953 4.43362 38.4537 4.17127C38.9058 3.91383 39.4172 3.7784 39.9375 3.77827C39.9646 3.77827 39.9869 3.80005 39.9869 3.82766V6.05022C39.9869 6.06134 39.9845 6.07234 39.98 6.0825C39.9755 6.09266 39.9689 6.10176 39.9606 6.10921C39.9523 6.11667 39.9426 6.12231 39.9321 6.12578C39.9215 6.12925 39.9103 6.13047 39.8992 6.12935C39.2827 6.07412 38.7287 6.20848 38.238 6.53191C37.7245 6.87021 37.468 7.43315 37.468 8.22021V12.0886C37.468 12.095 37.4667 12.1014 37.4642 12.1074C37.4617 12.1134 37.4581 12.1188 37.4535 12.1233C37.4489 12.1279 37.4434 12.1314 37.4374 12.1339C37.4315 12.1363 37.425 12.1375 37.4186 12.1374H35.3782C35.3652 12.1374 35.3528 12.1323 35.3436 12.1231C35.3345 12.114 35.3293 12.1015 35.3293 12.0886V3.99017C35.3293 3.96362 35.3511 3.94131 35.3782 3.94131H37.4186C37.4451 3.94131 37.4674 3.96309 37.4674 3.99017V5.35079L37.468 5.35186ZM47.5776 3.94184C47.5711 3.94177 47.5647 3.94299 47.5587 3.94541C47.5527 3.94783 47.5473 3.95142 47.5427 3.95597C47.5381 3.96051 47.5344 3.96592 47.5319 3.97188C47.5295 3.97785 47.5282 3.98424 47.5282 3.9907V4.90947C46.8877 4.11126 45.987 3.71242 44.8266 3.71242C43.7219 3.71242 42.774 4.13038 41.9843 4.96629C41.194 5.80221 40.7989 6.82666 40.7989 8.03964C40.7989 9.25262 41.194 10.2771 41.9843 11.113C42.774 11.9489 43.7219 12.3669 44.8266 12.3669C45.987 12.3669 46.8872 11.968 47.5282 11.1703V12.0886C47.5282 12.1151 47.5505 12.1374 47.5776 12.1374H49.6174C49.6445 12.1374 49.6668 12.1157 49.6668 12.0886V3.99017C49.6668 3.98371 49.6655 3.97731 49.6631 3.97135C49.6606 3.96539 49.6569 3.95998 49.6523 3.95543C49.6477 3.95089 49.6423 3.9473 49.6363 3.94488C49.6303 3.94245 49.6239 3.94124 49.6174 3.94131H47.5776V3.94184ZM43.5839 9.71147C44.0146 10.1379 44.561 10.3509 45.2249 10.3509C45.8877 10.3509 46.4373 10.1347 46.8739 9.70298C47.3104 9.27174 47.5282 8.7173 47.5282 8.03964C47.5282 7.36198 47.3104 6.80754 46.8739 6.37577C46.4373 5.94454 45.8877 5.72839 45.2244 5.72839C44.5616 5.72839 44.0146 5.94454 43.5833 6.3763C43.1532 6.80754 42.937 7.36198 42.937 8.03964C42.937 8.7173 43.1526 9.27439 43.5839 9.71147V9.71147ZM59.171 4.96629C58.3808 4.13038 57.4275 3.71242 56.3117 3.71242C55.1513 3.71242 54.2564 4.11126 53.6265 4.90894V3.9907C53.6265 3.97774 53.6214 3.96532 53.6122 3.95615C53.6031 3.94699 53.5906 3.94184 53.5777 3.94184H51.5373C51.5243 3.94184 51.5119 3.94699 51.5027 3.95615C51.4936 3.96532 51.4884 3.97774 51.4884 3.9907V15.3664C51.4884 15.3935 51.5102 15.4158 51.5373 15.4158H53.5777C53.6042 15.4158 53.6265 15.3935 53.6265 15.3664V11.1703C54.2564 11.968 55.1513 12.3669 56.3117 12.3669C57.4275 12.3669 58.3808 11.9489 59.171 11.113C59.9607 10.2771 60.3558 9.25262 60.3558 8.03964C60.3558 6.82666 59.9607 5.80221 59.171 4.96629V4.96629ZM54.2729 9.71147C54.7041 10.1379 55.2506 10.3509 55.9139 10.3509C56.5767 10.3509 57.1263 10.1347 57.5629 9.70298C57.9994 9.27174 58.2177 8.7173 58.2177 8.03964C58.2177 7.36198 57.9994 6.80754 57.5629 6.37577C57.1263 5.94454 56.5767 5.72839 55.9139 5.72839C55.2506 5.72839 54.7041 5.94454 54.2729 6.3763C53.8422 6.80754 53.6265 7.36198 53.6265 8.03964C53.6265 8.7173 53.8422 9.27439 54.2729 9.71147V9.71147ZM61.6782 12.1374C61.6653 12.1374 61.6528 12.1323 61.6437 12.1231C61.6345 12.114 61.6294 12.1015 61.6294 12.0886V3.99017C61.6294 3.96362 61.6511 3.94131 61.6782 3.94131H63.7186C63.7457 3.94131 63.7675 3.96309 63.7675 3.99017V12.0891C63.7675 12.1021 63.7623 12.1145 63.7532 12.1237C63.744 12.1328 63.7316 12.138 63.7186 12.138H61.6782V12.1374ZM23.5548 6.80223C23.2616 6.66574 23.1156 6.48783 23.1156 6.26956C23.1156 6.06191 23.2064 5.8978 23.3891 5.77778C23.5713 5.65776 23.8007 5.59721 24.0768 5.59721C24.6063 5.59721 25.0062 5.80168 25.2771 6.21008C25.2861 6.22394 25.2997 6.2342 25.3156 6.23905C25.3314 6.2439 25.3484 6.24305 25.3637 6.23663L27.1683 5.44692C27.1745 5.44412 27.1801 5.44004 27.1846 5.43495C27.1892 5.42986 27.1927 5.42387 27.1948 5.41736C27.1969 5.41085 27.1976 5.40397 27.1968 5.39717C27.1961 5.39037 27.194 5.3838 27.1906 5.37788C27.1698 5.34325 27.1485 5.30891 27.1268 5.27485C26.8183 4.79422 26.4184 4.43575 25.9165 4.1633C25.3642 3.86271 24.7508 3.71242 24.0768 3.71242C23.1815 3.71242 22.4332 3.9445 21.8304 4.40919C21.2287 4.87335 20.9276 5.51012 20.9276 6.31842C20.9276 6.85427 21.0741 7.29932 21.3668 7.65461C21.6496 8.00245 22.018 8.27075 22.4358 8.43317C22.8554 8.59674 23.2755 8.73376 23.6955 8.84263C24.1151 8.95203 24.472 9.07524 24.7646 9.21173C25.0572 9.34821 25.2038 9.52559 25.2038 9.7444C25.2038 10.2144 24.8225 10.4491 24.0604 10.4491C23.3344 10.4491 22.8315 10.1836 22.5516 9.65358C22.5404 9.63125 22.521 9.61403 22.4975 9.60544C22.4741 9.59686 22.4482 9.59755 22.4252 9.60738L20.6259 10.396C20.6199 10.3987 20.6145 10.4025 20.61 10.4072C20.6055 10.412 20.602 10.4176 20.5997 10.4238C20.5975 10.4299 20.5964 10.4365 20.5967 10.443C20.597 10.4496 20.5986 10.456 20.6015 10.4619L20.6217 10.5028C21.2505 11.7455 22.3965 12.3669 24.0604 12.3669C25.0105 12.3669 25.8034 12.1401 26.4386 11.6871C27.0743 11.233 27.3918 10.5856 27.3918 9.7444C27.3918 9.18677 27.2453 8.72261 26.9526 8.35085C26.6767 7.99211 26.3066 7.71706 25.8836 7.55636C25.4718 7.40042 25.0512 7.26901 24.6239 7.16283C24.2038 7.05874 23.8474 6.93872 23.5548 6.8017V6.80223Z" fill="white"/>
</g>
<defs>
<clipPath id="clip0_96_15960">
<rect width="63.1982" height="16.4634" fill="white" transform="translate(0.818359 0.352295)"/>
</clipPath>
</defs>
</svg>
