<svg width="120" height="16" viewBox="0 0 120 16" fill="none" xmlns="http://www.w3.org/2000/svg">
<g clip-path="url(#clip0_96_15931)">
<path fill-rule="evenodd" clip-rule="evenodd" d="M12.3206 0.352295C9.05058 0.352295 7.00683 1.98729 6.18934 5.25728C7.41558 3.62228 8.8462 3.00916 10.4812 3.41791C11.4141 3.6509 12.0808 4.32806 12.8188 5.07698C14.021 6.29732 15.4125 7.70977 18.4518 7.70977C21.7218 7.70977 23.7655 6.07478 24.583 2.80479C23.3568 4.43978 21.9262 5.05291 20.2912 4.64416C19.3583 4.41117 18.6916 3.73401 17.9536 2.98509C16.7514 1.76475 15.3598 0.352295 12.3206 0.352295ZM6.18934 7.70977C2.91935 7.70977 0.875603 9.34477 0.0581055 12.6148C1.28435 10.9798 2.71497 10.3666 4.34997 10.7754C5.28282 11.0088 5.94954 11.6855 6.68756 12.4345C7.88973 13.6548 9.28129 15.0672 12.3206 15.0672C15.5906 15.0672 17.6343 13.4323 18.4518 10.1623C17.2256 11.7973 15.7949 12.4104 14.1599 12.0016C13.2271 11.7686 12.5604 11.0915 11.8223 10.3426C10.6202 9.12223 9.22861 7.70977 6.18934 7.70977Z" fill="#38BDF8"/>
<path fill-rule="evenodd" clip-rule="evenodd" d="M36.8436 6.55261H34.7036V10.6946C34.7036 11.7991 35.4285 11.7819 36.8436 11.7128V13.3869C33.9788 13.7321 32.8397 12.9382 32.8397 10.6946V6.55261H31.252V4.75773H32.8397V2.43967L34.7036 1.88741V4.75773H36.8436V6.55261ZM45.0014 4.75773H46.8652V13.3869H45.0014V12.1443C44.3455 13.059 43.3273 13.6112 41.9812 13.6112C39.634 13.6112 37.6838 11.6265 37.6838 9.07232C37.6838 6.50084 39.634 4.53338 41.9812 4.53338C43.3273 4.53338 44.3455 5.08566 45.0014 5.98309V4.75773ZM42.2745 11.8336C43.8278 11.8336 45.0014 10.6773 45.0014 9.07232C45.0014 7.4673 43.8278 6.311 42.2745 6.311C40.7213 6.311 39.5477 7.4673 39.5477 9.07232C39.5477 10.6773 40.7213 11.8336 42.2745 11.8336ZM49.9717 3.46336C49.3159 3.46336 48.7809 2.9111 48.7809 2.27254C48.7814 1.9569 48.9072 1.65436 49.1302 1.43117C49.3536 1.20797 49.6561 1.08232 49.9717 1.08172C50.2874 1.08232 50.5899 1.20797 50.8133 1.43117C51.0363 1.65436 51.1621 1.9569 51.1626 2.27254C51.1626 2.9111 50.6276 3.46336 49.9717 3.46336ZM49.0398 13.3869V4.75773H50.9037V13.3869H49.0398ZM53.061 13.3869V0.78833H54.9249V13.3869H53.061ZM67.0229 4.75773H68.9904L66.2808 13.3869H64.4514L62.6566 7.57085L60.8445 13.3869H59.0151L56.3055 4.75773H58.273L59.947 10.7119L61.7591 4.75773H63.5367L65.3316 10.7119L67.0229 4.75773ZM71.303 3.46336C70.6472 3.46336 70.1121 2.9111 70.1121 2.27254C70.1126 1.9569 70.2384 1.65436 70.4614 1.43117C70.6849 1.20797 70.9873 1.08232 71.303 1.08172C71.6186 1.08232 71.9211 1.20797 72.1445 1.43117C72.3675 1.65436 72.4933 1.9569 72.4938 2.27254C72.4938 2.9111 71.9588 3.46336 71.303 3.46336ZM70.371 13.3869V4.75773H72.2349V13.3869H70.371ZM78.9311 4.53338C80.8641 4.53338 82.2447 5.84502 82.2447 8.0886V13.3869H80.3808V8.27844C80.3808 6.96681 79.6215 6.27648 78.4479 6.27648C77.2226 6.27648 76.2561 7.00133 76.2561 8.76167V13.3869H74.3922V4.75773H76.2561V5.86228C76.8256 4.96485 77.7576 4.53338 78.9311 4.53338ZM91.081 1.30608H92.9449V13.3869H91.081V12.1443C90.4251 13.059 89.4069 13.6112 88.0608 13.6112C85.7136 13.6112 83.7634 11.6265 83.7634 9.07232C83.7634 6.50084 85.7136 4.53338 88.0608 4.53338C89.4069 4.53338 90.4251 5.08566 91.081 5.98309V1.30608ZM88.3542 11.8336C89.9074 11.8336 91.081 10.6773 91.081 9.07232C91.081 7.4673 89.9074 6.311 88.3542 6.311C86.8009 6.311 85.6273 7.4673 85.6273 9.07232C85.6273 10.6773 86.8009 11.8336 88.3542 11.8336ZM99.1923 13.6112C96.5863 13.6112 94.6362 11.6265 94.6362 9.07232C94.6362 6.50084 96.5863 4.53338 99.1923 4.53338C100.884 4.53338 102.351 5.41357 103.041 6.75971L101.436 7.69166C101.056 6.88052 100.211 6.36277 99.1751 6.36277C97.6564 6.36277 96.5001 7.51908 96.5001 9.07232C96.5001 10.6256 97.6564 11.7819 99.1751 11.7819C100.211 11.7819 101.056 11.2469 101.47 10.453L103.075 11.3677C102.351 12.7311 100.884 13.6112 99.1923 13.6112ZM106.147 7.13939C106.147 8.7099 110.79 7.76069 110.79 10.9535C110.79 12.6793 109.288 13.6112 107.425 13.6112C105.699 13.6112 104.456 12.8346 103.904 11.592L105.509 10.6601C105.785 11.4367 106.475 11.9027 107.425 11.9027C108.253 11.9027 108.892 11.6265 108.892 10.9362C108.892 9.40023 104.249 10.2631 104.249 7.17391C104.249 5.55163 105.647 4.53338 107.407 4.53338C108.822 4.53338 109.996 5.18921 110.6 6.32826L109.03 7.20843C108.719 6.53535 108.115 6.22471 107.407 6.22471C106.734 6.22471 106.147 6.5181 106.147 7.13939ZM114.104 7.13939C114.104 8.7099 118.746 7.76069 118.746 10.9535C118.746 12.6793 117.245 13.6112 115.381 13.6112C113.655 13.6112 112.412 12.8346 111.86 11.592L113.465 10.6601C113.741 11.4367 114.431 11.9027 115.381 11.9027C116.209 11.9027 116.848 11.6265 116.848 10.9362C116.848 9.40023 112.205 10.2631 112.205 7.17391C112.205 5.55163 113.603 4.53338 115.363 4.53338C116.779 4.53338 117.952 5.18921 118.556 6.32826L116.986 7.20843C116.675 6.53535 116.071 6.22471 115.363 6.22471C114.69 6.22471 114.104 6.5181 114.104 7.13939Z" fill="white"/>
</g>
<defs>
<clipPath id="clip0_96_15931">
<rect width="118.991" height="14.9875" fill="white" transform="translate(0.0576172 0.352295)"/>
</clipPath>
</defs>
</svg>
