<svg width="82" height="19" viewBox="0 0 82 19" fill="none" xmlns="http://www.w3.org/2000/svg">
<g clip-path="url(#clip0_96_15980)">
<path fill-rule="evenodd" clip-rule="evenodd" d="M72.5321 0.357656C70.459 0.286174 68.3861 0.929516 66.6704 2.28768L67.8141 2.93102C69.1724 1.93027 70.8878 1.50138 72.5321 1.57286V0.357656Z" fill="url(#paint0_linear_96_15980)"/>
<path fill-rule="evenodd" clip-rule="evenodd" d="M78.6075 3.07393C77.1778 1.5728 75.3193 0.643525 73.3179 0.429077V1.64428C75.0335 1.93021 76.5347 2.71652 77.7498 3.93172L78.6075 3.07393Z" fill="url(#paint1_linear_96_15980)"/>
<path fill-rule="evenodd" clip-rule="evenodd" d="M81.1817 8.93559C81.1102 7.07704 80.3954 5.21849 79.1802 3.64587L78.3223 4.50366C79.3231 5.86185 79.8951 7.36297 79.9665 8.93559H81.1817Z" fill="url(#paint2_linear_96_15980)"/>
<path fill-rule="evenodd" clip-rule="evenodd" d="M79.1802 15.083C80.3954 13.5104 81.1102 11.6519 81.1817 9.79333H79.9665C79.8951 11.3659 79.3231 12.8671 78.3223 14.2252L79.1802 15.083Z" fill="url(#paint3_linear_96_15980)"/>
<path fill-rule="evenodd" clip-rule="evenodd" d="M73.3179 18.2998C75.2479 18.0853 77.1778 17.156 78.6075 15.6549L77.7498 14.7971C76.5347 16.0838 74.9619 16.8701 73.3179 17.0846V18.2998Z" fill="url(#paint4_linear_96_15980)"/>
<path fill-rule="evenodd" clip-rule="evenodd" d="M66.6704 16.4412C68.3861 17.7993 70.459 18.4427 72.5321 18.3712V17.156C70.8878 17.2275 69.2438 16.7986 67.8141 15.7979L66.6704 16.4412Z" fill="url(#paint5_linear_96_15980)"/>
<path d="M5.16532 6.75109V14.1553H2.69725V6.75109H0.669922V4.6608H7.19265V6.75109H5.16532ZM10.1289 4.6608V9.82357C10.1289 10.1006 10.1373 10.386 10.1541 10.6798C10.1792 10.9653 10.2422 11.2255 10.3429 11.4605C10.4521 11.6956 10.62 11.8887 10.8466 12.0398C11.0733 12.1825 11.3923 12.2539 11.8036 12.2539C12.215 12.2539 12.5298 12.1825 12.748 12.0398C12.9747 11.8887 13.1426 11.6956 13.2517 11.4605C13.3609 11.2255 13.4238 10.9653 13.4406 10.6798C13.4658 10.386 13.4784 10.1006 13.4784 9.82357V4.6608H15.9338V10.1636C15.9338 11.641 15.5939 12.7198 14.9139 13.3997C14.2423 14.0797 13.2056 14.4197 11.8036 14.4197C10.4017 14.4197 9.36075 14.0797 8.68077 13.3997C8.0008 12.7198 7.66081 11.641 7.66081 10.1636V4.6608H10.1289ZM19.7673 8.90435H20.2332C20.7201 8.90435 21.0936 8.80361 21.3539 8.60213C21.6141 8.40066 21.7442 8.11104 21.7442 7.73328C21.7442 7.35551 21.6141 7.06589 21.3539 6.86442C21.0936 6.66295 20.7201 6.56221 20.2332 6.56221H19.7673V8.90435ZM25.1944 14.1553H22.122L19.7673 10.5035V14.1553H17.2992V4.6608H21.1398C21.6687 4.6608 22.1304 4.74054 22.525 4.90005C22.9195 5.05115 23.2427 5.26103 23.4945 5.52965C23.7548 5.79828 23.9479 6.10889 24.0738 6.46147C24.2081 6.81405 24.2753 7.19182 24.2753 7.59476C24.2753 8.31671 24.099 8.90435 23.7464 9.35766C23.4022 9.80258 22.8901 10.1048 22.2101 10.2643L25.1944 14.1553ZM28.0652 12.2413H28.6066C29.228 12.2413 29.6729 12.1615 29.9414 12.002C30.2102 11.8425 30.3444 11.5865 30.3444 11.2339C30.3444 10.8813 30.2102 10.6253 29.9414 10.4658C29.6729 10.3063 29.228 10.2265 28.6066 10.2265H28.0652V12.2413ZM28.0652 8.38807H28.5185C29.291 8.38807 29.677 8.08167 29.677 7.46884C29.677 6.85602 29.291 6.54962 28.5185 6.54962H28.0652V8.38807ZM25.5971 4.6608H29.274C30.1472 4.6608 30.8103 4.87067 31.2636 5.2904C31.7169 5.71013 31.9436 6.31456 31.9436 7.10367C31.9436 7.58217 31.8554 7.98093 31.6791 8.29992C31.5113 8.61054 31.251 8.87497 30.8984 9.09323C31.251 9.16038 31.5491 9.26533 31.7924 9.40803C32.0443 9.54236 32.2458 9.71024 32.3969 9.91172C32.5564 10.1132 32.6698 10.3398 32.7369 10.5917C32.8042 10.8435 32.8376 11.1122 32.8376 11.3976C32.8376 11.8425 32.7579 12.2371 32.5983 12.5812C32.4472 12.9254 32.2291 13.215 31.9436 13.4501C31.6665 13.6852 31.3265 13.8615 30.9236 13.979C30.5206 14.0965 30.0673 14.1553 29.5636 14.1553H25.5971V4.6608ZM35.7657 9.40803C35.7657 9.78579 35.8369 10.1342 35.9798 10.4532C36.1224 10.7722 36.3154 11.0492 36.5591 11.2843C36.8024 11.5193 37.0836 11.704 37.4027 11.8383C37.7301 11.9642 38.0742 12.0272 38.4353 12.0272C38.7961 12.0272 39.1361 11.9642 39.4552 11.8383C39.7826 11.704 40.0679 11.5193 40.3115 11.2843C40.5634 11.0492 40.7605 10.7722 40.9033 10.4532C41.046 10.1342 41.1174 9.78579 41.1174 9.40803C41.1174 9.03027 41.046 8.68188 40.9033 8.36288C40.7605 8.04389 40.5634 7.76686 40.3115 7.5318C40.0679 7.29674 39.7826 7.11626 39.4552 6.99034C39.1361 6.85602 38.7961 6.78887 38.4353 6.78887C38.0742 6.78887 37.7301 6.85602 37.4027 6.99034C37.0836 7.11626 36.8024 7.29674 36.5591 7.5318C36.3154 7.76686 36.1224 8.04389 35.9798 8.36288C35.8369 8.68188 35.7657 9.03027 35.7657 9.40803ZM33.1844 9.40803C33.1844 8.70287 33.3144 8.04808 33.5747 7.44366C33.8348 6.83083 34.1958 6.29777 34.6576 5.84446C35.1192 5.39114 35.6691 5.03856 36.3072 4.78672C36.9535 4.52647 37.6628 4.39636 38.4353 4.39636C39.199 4.39636 39.9042 4.52647 40.5508 4.78672C41.1971 5.03856 41.7511 5.39114 42.2129 5.84446C42.6829 6.29777 43.0481 6.83083 43.3084 7.44366C43.5685 8.04808 43.6988 8.70287 43.6988 9.40803C43.6988 10.1132 43.5685 10.7722 43.3084 11.385C43.0481 11.9894 42.6829 12.5183 42.2129 12.9716C41.7511 13.4249 41.1971 13.7817 40.5508 14.0419C39.9042 14.2938 39.199 14.4197 38.4353 14.4197C37.6628 14.4197 36.9535 14.2938 36.3072 14.0419C35.6691 13.7817 35.1192 13.4249 34.6576 12.9716C34.1958 12.5183 33.8348 11.9894 33.5747 11.385C33.3144 10.7722 33.1844 10.1132 33.1844 9.40803ZM47.0962 8.90435H47.5622C48.0489 8.90435 48.4225 8.80361 48.6829 8.60213C48.9429 8.40066 49.0732 8.11104 49.0732 7.73328C49.0732 7.35551 48.9429 7.06589 48.6829 6.86442C48.4225 6.66295 48.0489 6.56221 47.5622 6.56221H47.0962V8.90435ZM52.5235 14.1553H49.451L47.0962 10.5035V14.1553H44.6282V4.6608H48.4688C48.9977 4.6608 49.4592 4.74054 49.8539 4.90005C50.2484 5.05115 50.5717 5.26103 50.8235 5.52965C51.0836 5.79828 51.2768 6.10889 51.4028 6.46147C51.5369 6.81405 51.6042 7.19182 51.6042 7.59476C51.6042 8.31671 51.4279 8.90435 51.0754 9.35766C50.731 9.80258 50.2191 10.1048 49.5391 10.2643L52.5235 14.1553ZM58.3282 6.75109H55.3942V8.3377H58.1645V10.428H55.3942V12.065H58.3282V14.1553H52.9262V4.6608H58.3282V6.75109ZM61.946 9.01767H62.7645C63.6711 9.01767 64.1244 8.62313 64.1244 7.83401C64.1244 7.0449 63.6711 6.65035 62.7645 6.65035H61.946V9.01767ZM61.946 14.1553H59.4779V4.6608H63.4067C64.4729 4.6608 65.287 4.93782 65.8496 5.49188C66.4203 6.04593 66.7058 6.82664 66.7058 7.83401C66.7058 8.84138 66.4203 9.6221 65.8496 10.1762C65.287 10.7302 64.4729 11.0072 63.4067 11.0072H61.946V14.1553ZM69.5357 9.40803C69.5357 9.78579 69.6071 10.1342 69.7497 10.4532C69.8924 10.7722 70.0856 11.0492 70.329 11.2843C70.5723 11.5193 70.8537 11.704 71.1726 11.8383C71.5 11.9642 71.8441 12.0272 72.2052 12.0272C72.5662 12.0272 72.9062 11.9642 73.2252 11.8383C73.5526 11.704 73.8381 11.5193 74.0814 11.2843C74.3333 11.0492 74.5306 10.7722 74.6733 10.4532C74.8159 10.1342 74.8873 9.78579 74.8873 9.40803C74.8873 9.03027 74.8159 8.68188 74.6733 8.36288C74.5306 8.04389 74.3333 7.76686 74.0814 7.5318C73.8381 7.29674 73.5526 7.11626 73.2252 6.99034C72.9062 6.85602 72.5662 6.78887 72.2052 6.78887C71.8441 6.78887 71.5 6.85602 71.1726 6.99034C70.8537 7.11626 70.5723 7.29674 70.329 7.5318C70.0856 7.76686 69.8924 8.04389 69.7497 8.36288C69.6071 8.68188 69.5357 9.03027 69.5357 9.40803ZM66.9543 9.40803C66.9543 8.70287 67.0843 8.04808 67.3446 7.44366C67.605 6.83083 67.9658 6.29777 68.4276 5.84446C68.8894 5.39114 69.439 5.03856 70.0771 4.78672C70.7234 4.52647 71.433 4.39636 72.2052 4.39636C72.9692 4.39636 73.6744 4.52647 74.3207 4.78672C74.967 5.03856 75.521 5.39114 75.9828 5.84446C76.4529 6.29777 76.818 6.83083 77.0784 7.44366C77.3387 8.04808 77.4687 8.70287 77.4687 9.40803C77.4687 10.1132 77.3387 10.7722 77.0784 11.385C76.818 11.9894 76.4529 12.5183 75.9828 12.9716C75.521 13.4249 74.967 13.7817 74.3207 14.0419C73.6744 14.2938 72.9692 14.4197 72.2052 14.4197C71.433 14.4197 70.7234 14.2938 70.0771 14.0419C69.439 13.7817 68.8894 13.4249 68.4276 12.9716C67.9658 12.5183 67.605 11.9894 67.3446 11.385C67.0843 10.7722 66.9543 10.1132 66.9543 9.40803Z" fill="#F0FEFF"/>
</g>
<defs>
<linearGradient id="paint0_linear_96_15980" x1="73.9259" y1="0.352295" x2="73.9259" y2="18.3766" gradientUnits="userSpaceOnUse">
<stop stop-color="#1E90FF"/>
<stop offset="1" stop-color="#FF1E56"/>
</linearGradient>
<linearGradient id="paint1_linear_96_15980" x1="73.9254" y1="0.352237" x2="73.9254" y2="18.3765" gradientUnits="userSpaceOnUse">
<stop stop-color="#1E90FF"/>
<stop offset="1" stop-color="#FF1E56"/>
</linearGradient>
<linearGradient id="paint2_linear_96_15980" x1="73.9262" y1="0.352329" x2="73.9262" y2="18.3766" gradientUnits="userSpaceOnUse">
<stop stop-color="#1E90FF"/>
<stop offset="1" stop-color="#FF1E56"/>
</linearGradient>
<linearGradient id="paint3_linear_96_15980" x1="73.9262" y1="0.352286" x2="73.9262" y2="18.3766" gradientUnits="userSpaceOnUse">
<stop stop-color="#1E90FF"/>
<stop offset="1" stop-color="#FF1E56"/>
</linearGradient>
<linearGradient id="paint4_linear_96_15980" x1="73.9254" y1="0.352298" x2="73.9254" y2="18.3766" gradientUnits="userSpaceOnUse">
<stop stop-color="#1E90FF"/>
<stop offset="1" stop-color="#FF1E56"/>
</linearGradient>
<linearGradient id="paint5_linear_96_15980" x1="73.9259" y1="0.35227" x2="73.9259" y2="18.3766" gradientUnits="userSpaceOnUse">
<stop stop-color="#1E90FF"/>
<stop offset="1" stop-color="#FF1E56"/>
</linearGradient>
<clipPath id="clip0_96_15980">
<rect width="80.6381" height="18.1617" fill="white" transform="translate(0.543457 0.352295)"/>
</clipPath>
</defs>
</svg>
